<?xml version="1.0" encoding="UTF-8" standalone="no"?><!DOCTYPE svg PUBLIC "-//W3C//DTD SVG 1.1//EN" "http://www.w3.org/Graphics/SVG/1.1/DTD/svg11.dtd"><svg width="100%" height="100%" viewBox="0 0 480 480" version="1.1" xmlns="http://www.w3.org/2000/svg" xmlns:xlink="http://www.w3.org/1999/xlink" xml:space="preserve" xmlns:serif="http://www.serif.com/" style="fill-rule:evenodd;clip-rule:evenodd;stroke-linejoin:round;stroke-miterlimit:1.41421;"><path d="M316.142,104.695c0,-8.708 -7.07,-15.777 -15.778,-15.777l-120.728,0c-8.708,0 -15.778,7.069 -15.778,15.777l0,270.61c0,8.708 7.07,15.777 15.778,15.777l120.728,0c8.708,0 15.778,-7.069 15.778,-15.777l0,-270.61Z" style="fill:none;"/><clipPath id="_clip1"><path d="M316.142,104.695c0,-8.708 -7.07,-15.777 -15.778,-15.777l-120.728,0c-8.708,0 -15.778,7.069 -15.778,15.777l0,270.61c0,8.708 7.07,15.777 15.778,15.777l120.728,0c8.708,0 15.778,-7.069 15.778,-15.777l0,-270.61Z"/></clipPath><g clip-path="url(#_clip1)"><path d="M277.962,94.695c0,-3.189 -2.589,-5.777 -5.778,-5.777l-64.368,0c-3.189,0 -5.778,2.588 -5.778,5.777l0,11.555c0,3.188 2.589,5.777 5.778,5.777l64.368,0c3.189,0 5.778,-2.589 5.778,-5.777l0,-11.555Z" style="fill:#545454;"/></g><path d="M300.568,88.919l0.203,0.004l0.202,0.006l0.202,0.009l0.202,0.012l0.2,0.014l0.2,0.016l0.199,0.019l0.199,0.022l0.197,0.023l0.197,0.027l0.196,0.029l0.196,0.031l0.194,0.033l0.194,0.036l0.193,0.038l0.192,0.041l0.191,0.043l0.191,0.045l0.189,0.048l0.189,0.049l0.187,0.053l0.187,0.054l0.186,0.056l0.184,0.059l0.184,0.061l0.183,0.063l0.182,0.066l0.18,0.067l0.18,0.07l0.178,0.071l0.178,0.074l0.176,0.076l0.176,0.078l0.174,0.08l0.173,0.082l0.172,0.085l0.17,0.086l0.17,0.088l0.168,0.09l0.167,0.092l0.166,0.094l0.164,0.096l0.164,0.098l0.162,0.1l0.16,0.102l0.16,0.103l0.158,0.106l0.157,0.107l0.155,0.109l0.154,0.111l0.153,0.113l0.151,0.114l0.149,0.117l0.149,0.118l0.147,0.119l0.145,0.122l0.144,0.123l0.142,0.125l0.141,0.126l0.14,0.129l0.137,0.129l0.137,0.132l0.134,0.133l0.133,0.135l0.132,0.136l0.13,0.138l0.128,0.139l0.126,0.141l0.125,0.142l0.123,0.144l0.122,0.146l0.12,0.147l0.118,0.148l0.116,0.15l0.114,0.151l0.113,0.152l0.111,0.154l0.109,0.156l0.108,0.156l0.105,0.158l0.104,0.16l0.101,0.161l0.1,0.162l0.098,0.163l0.096,0.164l0.094,0.166l0.092,0.167l0.09,0.169l0.089,0.169l0.086,0.171l0.084,0.172l0.082,0.173l0.08,0.174l0.078,0.175l0.076,0.176l0.074,0.178l0.072,0.178l0.069,0.18l0.068,0.181l0.065,0.181l0.063,0.183l0.061,0.184l0.059,0.185l0.056,0.185l0.055,0.187l0.052,0.188l0.05,0.188l0.047,0.19l0.045,0.19l0.043,0.191l0.041,0.192l0.038,0.193l0.036,0.194l0.034,0.195l0.031,0.195l0.029,0.196l0.026,0.197l0.024,0.198l0.021,0.198l0.019,0.199l0.017,0.2l0.014,0.201l0.011,0.201l0.009,0.202l0.007,0.202l0.003,0.204l0.002,0.203l0,270.61l-0.002,0.203l-0.003,0.204l-0.007,0.202l-0.009,0.202l-0.011,0.201l-0.014,0.201l-0.017,0.2l-0.019,0.199l-0.021,0.198l-0.024,0.198l-0.026,0.197l-0.029,0.196l-0.031,0.195l-0.034,0.195l-0.036,0.194l-0.038,0.193l-0.041,0.192l-0.043,0.191l-0.045,0.19l-0.047,0.19l-0.05,0.188l-0.052,0.188l-0.055,0.187l-0.056,0.185l-0.059,0.185l-0.061,0.184l-0.063,0.183l-0.065,0.181l-0.068,0.181l-0.069,0.18l-0.072,0.178l-0.074,0.178l-0.076,0.176l-0.078,0.175l-0.08,0.174l-0.082,0.173l-0.084,0.172l-0.086,0.171l-0.089,0.169l-0.09,0.169l-0.092,0.167l-0.094,0.166l-0.096,0.164l-0.098,0.163l-0.1,0.162l-0.101,0.161l-0.104,0.16l-0.105,0.158l-0.108,0.156l-0.109,0.156l-0.111,0.154l-0.113,0.152l-0.114,0.151l-0.116,0.15l-0.118,0.148l-0.12,0.147l-0.122,0.146l-0.123,0.144l-0.125,0.142l-0.126,0.141l-0.128,0.139l-0.13,0.138l-0.132,0.136l-0.133,0.135l-0.134,0.133l-0.137,0.132l-0.137,0.129l-0.14,0.129l-0.141,0.126l-0.142,0.125l-0.144,0.123l-0.145,0.122l-0.147,0.119l-0.149,0.118l-0.149,0.117l-0.151,0.114l-0.153,0.113l-0.154,0.111l-0.155,0.109l-0.157,0.107l-0.158,0.106l-0.16,0.103l-0.16,0.102l-0.162,0.1l-0.164,0.098l-0.164,0.096l-0.166,0.094l-0.167,0.092l-0.168,0.09l-0.17,0.088l-0.17,0.086l-0.172,0.085l-0.173,0.082l-0.174,0.08l-0.176,0.078l-0.176,0.076l-0.178,0.074l-0.178,0.071l-0.18,0.07l-0.18,0.067l-0.182,0.066l-0.183,0.063l-0.184,0.061l-0.184,0.059l-0.186,0.056l-0.187,0.054l-0.187,0.053l-0.189,0.049l-0.189,0.048l-0.191,0.045l-0.191,0.043l-0.192,0.041l-0.193,0.038l-0.194,0.036l-0.194,0.033l-0.196,0.031l-0.196,0.029l-0.197,0.027l-0.197,0.023l-0.199,0.022l-0.199,0.019l-0.2,0.016l-0.2,0.014l-0.202,0.012l-0.202,0.009l-0.202,0.006l-0.203,0.004l-0.204,0.001l-120.728,0l-0.204,-0.001l-0.203,-0.004l-0.202,-0.006l-0.202,-0.009l-0.202,-0.012l-0.2,-0.014l-0.2,-0.016l-0.199,-0.019l-0.199,-0.022l-0.197,-0.023l-0.197,-0.027l-0.196,-0.029l-0.196,-0.031l-0.194,-0.033l-0.194,-0.036l-0.193,-0.038l-0.192,-0.041l-0.191,-0.043l-0.191,-0.045l-0.189,-0.048l-0.189,-0.049l-0.187,-0.053l-0.187,-0.054l-0.186,-0.056l-0.184,-0.059l-0.184,-0.061l-0.183,-0.063l-0.182,-0.066l-0.18,-0.067l-0.18,-0.07l-0.178,-0.071l-0.178,-0.074l-0.176,-0.076l-0.176,-0.078l-0.174,-0.08l-0.173,-0.082l-0.172,-0.085l-0.17,-0.086l-0.17,-0.088l-0.168,-0.09l-0.167,-0.092l-0.166,-0.094l-0.164,-0.096l-0.164,-0.098l-0.162,-0.1l-0.16,-0.102l-0.16,-0.103l-0.158,-0.106l-0.157,-0.107l-0.155,-0.109l-0.154,-0.111l-0.153,-0.113l-0.151,-0.114l-0.149,-0.117l-0.149,-0.118l-0.147,-0.119l-0.145,-0.122l-0.144,-0.123l-0.142,-0.125l-0.141,-0.126l-0.14,-0.129l-0.137,-0.129l-0.137,-0.132l-0.134,-0.133l-0.133,-0.135l-0.132,-0.136l-0.13,-0.138l-0.128,-0.139l-0.126,-0.141l-0.125,-0.142l-0.123,-0.144l-0.122,-0.146l-0.12,-0.147l-0.118,-0.148l-0.116,-0.15l-0.114,-0.151l-0.113,-0.152l-0.111,-0.154l-0.109,-0.156l-0.108,-0.156l-0.105,-0.158l-0.104,-0.16l-0.101,-0.161l-0.1,-0.162l-0.098,-0.163l-0.096,-0.164l-0.094,-0.166l-0.092,-0.167l-0.09,-0.169l-0.089,-0.169l-0.086,-0.171l-0.084,-0.172l-0.082,-0.173l-0.08,-0.174l-0.078,-0.175l-0.076,-0.176l-0.074,-0.178l-0.072,-0.178l-0.069,-0.18l-0.068,-0.181l-0.065,-0.181l-0.063,-0.183l-0.061,-0.184l-0.059,-0.185l-0.056,-0.185l-0.055,-0.187l-0.052,-0.188l-0.05,-0.188l-0.047,-0.19l-0.045,-0.19l-0.043,-0.191l-0.041,-0.192l-0.038,-0.193l-0.036,-0.194l-0.034,-0.195l-0.031,-0.195l-0.029,-0.196l-0.026,-0.197l-0.024,-0.198l-0.021,-0.198l-0.019,-0.199l-0.017,-0.2l-0.014,-0.201l-0.011,-0.201l-0.009,-0.202l-0.007,-0.202l-0.003,-0.204l-0.002,-0.203l0,-270.61l0.002,-0.203l0.003,-0.204l0.007,-0.202l0.009,-0.202l0.011,-0.201l0.014,-0.201l0.017,-0.2l0.019,-0.199l0.021,-0.198l0.024,-0.198l0.026,-0.197l0.029,-0.196l0.031,-0.195l0.034,-0.195l0.036,-0.194l0.038,-0.193l0.041,-0.192l0.043,-0.191l0.045,-0.19l0.047,-0.19l0.05,-0.188l0.052,-0.188l0.055,-0.187l0.056,-0.185l0.059,-0.185l0.061,-0.184l0.063,-0.183l0.065,-0.181l0.068,-0.181l0.069,-0.18l0.072,-0.178l0.074,-0.178l0.076,-0.176l0.078,-0.175l0.08,-0.174l0.082,-0.173l0.084,-0.172l0.086,-0.171l0.089,-0.169l0.09,-0.169l0.092,-0.167l0.094,-0.166l0.096,-0.164l0.098,-0.163l0.1,-0.162l0.101,-0.161l0.104,-0.16l0.105,-0.158l0.108,-0.156l0.109,-0.156l0.111,-0.154l0.113,-0.152l0.114,-0.151l0.116,-0.15l0.118,-0.148l0.12,-0.147l0.122,-0.146l0.123,-0.144l0.125,-0.142l0.126,-0.141l0.128,-0.139l0.13,-0.138l0.132,-0.136l0.133,-0.135l0.134,-0.133l0.137,-0.132l0.137,-0.129l0.14,-0.129l0.141,-0.126l0.142,-0.125l0.144,-0.123l0.145,-0.122l0.147,-0.119l0.149,-0.118l0.149,-0.117l0.151,-0.114l0.153,-0.113l0.154,-0.111l0.155,-0.109l0.157,-0.107l0.158,-0.106l0.16,-0.103l0.16,-0.102l0.162,-0.1l0.164,-0.098l0.164,-0.096l0.166,-0.094l0.167,-0.092l0.168,-0.09l0.17,-0.088l0.17,-0.086l0.172,-0.085l0.173,-0.082l0.174,-0.08l0.176,-0.078l0.176,-0.076l0.178,-0.074l0.178,-0.071l0.18,-0.07l0.18,-0.067l0.182,-0.066l0.183,-0.063l0.184,-0.061l0.184,-0.059l0.186,-0.056l0.187,-0.054l0.187,-0.053l0.189,-0.049l0.189,-0.048l0.191,-0.045l0.191,-0.043l0.192,-0.041l0.193,-0.038l0.194,-0.036l0.194,-0.033l0.196,-0.031l0.196,-0.029l0.197,-0.027l0.197,-0.023l0.199,-0.022l0.199,-0.019l0.2,-0.016l0.2,-0.014l0.202,-0.012l0.202,-0.009l0.202,-0.006l0.203,-0.004l0.204,-0.001l120.728,0l0.204,0.001Zm-120.9,9.999l-0.109,0l-0.076,0.002l-0.076,0.002l-0.076,0.003l-0.074,0.005l-0.074,0.005l-0.074,0.006l-0.074,0.007l-0.072,0.008l-0.073,0.009l-0.072,0.009l-0.071,0.011l-0.071,0.011l-0.071,0.012l-0.07,0.013l-0.07,0.014l-0.07,0.015l-0.069,0.015l-0.069,0.017l-0.068,0.017l-0.068,0.018l-0.068,0.019l-0.067,0.019l-0.067,0.021l-0.067,0.021l-0.066,0.022l-0.066,0.023l-0.066,0.023l-0.065,0.025l-0.065,0.025l-0.065,0.026l-0.064,0.026l-0.064,0.028l-0.064,0.028l-0.063,0.029l-0.063,0.03l-0.062,0.031l-0.062,0.031l-0.062,0.032l-0.061,0.033l-0.061,0.034l-0.061,0.034l-0.061,0.036l-0.059,0.035l-0.06,0.037l-0.058,0.037l-0.059,0.038l-0.058,0.039l-0.058,0.04l-0.057,0.04l-0.057,0.041l-0.056,0.041l-0.056,0.043l-0.055,0.043l-0.055,0.043l-0.055,0.045l-0.054,0.045l-0.053,0.045l-0.053,0.047l-0.052,0.046l-0.051,0.048l-0.052,0.048l-0.05,0.049l-0.05,0.049l-0.049,0.05l-0.049,0.051l-0.048,0.051l-0.048,0.051l-0.047,0.053l-0.046,0.052l-0.046,0.054l-0.045,0.053l-0.044,0.055l-0.044,0.055l-0.042,0.055l-0.043,0.056l-0.042,0.056l-0.04,0.057l-0.04,0.057l-0.04,0.058l-0.039,0.058l-0.038,0.059l-0.037,0.059l-0.037,0.059l-0.036,0.06l-0.035,0.06l-0.034,0.061l-0.034,0.061l-0.033,0.061l-0.032,0.062l-0.031,0.062l-0.031,0.063l-0.03,0.062l-0.029,0.064l-0.028,0.063l-0.028,0.064l-0.027,0.065l-0.025,0.064l-0.026,0.065l-0.024,0.065l-0.024,0.066l-0.023,0.066l-0.021,0.067l-0.022,0.066l-0.02,0.067l-0.02,0.068l-0.018,0.067l-0.018,0.068l-0.018,0.069l-0.016,0.068l-0.015,0.069l-0.015,0.07l-0.014,0.07l-0.013,0.07l-0.012,0.071l-0.012,0.071l-0.01,0.071l-0.01,0.073l-0.008,0.072l-0.008,0.073l-0.007,0.073l-0.006,0.074l-0.006,0.074l-0.004,0.075l-0.003,0.075l-0.003,0.076l-0.001,0.076l-0.001,0.109l0,270.546l0.001,0.109l0.001,0.076l0.003,0.076l0.003,0.075l0.004,0.075l0.006,0.074l0.006,0.074l0.007,0.073l0.008,0.073l0.008,0.072l0.01,0.073l0.01,0.071l0.012,0.071l0.012,0.071l0.013,0.07l0.014,0.07l0.015,0.07l0.015,0.069l0.016,0.068l0.018,0.069l0.018,0.068l0.018,0.067l0.02,0.068l0.02,0.067l0.022,0.066l0.022,0.067l0.023,0.066l0.023,0.065l0.024,0.065l0.026,0.066l0.026,0.065l0.026,0.063l0.028,0.065l0.028,0.063l0.029,0.063l0.03,0.063l0.031,0.063l0.031,0.062l0.032,0.061l0.033,0.062l0.034,0.061l0.034,0.061l0.036,0.061l0.035,0.059l0.037,0.059l0.037,0.06l0.038,0.058l0.039,0.058l0.039,0.058l0.041,0.057l0.041,0.057l0.041,0.056l0.042,0.056l0.043,0.055l0.044,0.055l0.045,0.055l0.044,0.053l0.046,0.054l0.046,0.052l0.047,0.052l0.047,0.052l0.049,0.051l0.049,0.051l0.049,0.05l0.05,0.049l0.05,0.049l0.051,0.048l0.053,0.048l0.051,0.047l0.053,0.046l0.053,0.045l0.054,0.045l0.055,0.045l0.055,0.044l0.055,0.042l0.056,0.043l0.056,0.041l0.056,0.041l0.058,0.04l0.058,0.04l0.058,0.039l0.059,0.038l0.058,0.037l0.059,0.036l0.06,0.036l0.061,0.036l0.06,0.034l0.062,0.034l0.061,0.033l0.062,0.032l0.062,0.031l0.063,0.031l0.062,0.029l0.063,0.03l0.064,0.028l0.064,0.028l0.064,0.026l0.065,0.026l0.066,0.026l0.064,0.024l0.065,0.023l0.067,0.023l0.066,0.022l0.067,0.021l0.067,0.021l0.067,0.019l0.068,0.019l0.068,0.018l0.069,0.017l0.068,0.017l0.069,0.015l0.07,0.015l0.07,0.014l0.07,0.013l0.07,0.012l0.072,0.011l0.072,0.011l0.071,0.009l0.072,0.009l0.073,0.008l0.074,0.007l0.074,0.006l0.073,0.005l0.075,0.005l0.076,0.003l0.076,0.002l0.076,0.002l0.109,0l120.664,0l0.109,0l0.076,-0.002l0.076,-0.002l0.076,-0.003l0.075,-0.005l0.073,-0.005l0.074,-0.006l0.074,-0.007l0.073,-0.008l0.071,-0.009l0.072,-0.009l0.072,-0.011l0.072,-0.011l0.07,-0.012l0.07,-0.013l0.07,-0.014l0.07,-0.015l0.069,-0.015l0.068,-0.017l0.069,-0.017l0.069,-0.018l0.067,-0.019l0.067,-0.019l0.067,-0.021l0.066,-0.021l0.067,-0.022l0.067,-0.023l0.065,-0.023l0.065,-0.024l0.065,-0.026l0.065,-0.026l0.064,-0.027l0.064,-0.027l0.063,-0.028l0.064,-0.03l0.062,-0.029l0.063,-0.031l0.062,-0.031l0.062,-0.032l0.062,-0.033l0.061,-0.034l0.06,-0.034l0.061,-0.036l0.059,-0.035l0.06,-0.037l0.059,-0.037l0.058,-0.038l0.058,-0.039l0.058,-0.04l0.057,-0.04l0.057,-0.041l0.056,-0.041l0.056,-0.043l0.055,-0.042l0.055,-0.044l0.055,-0.045l0.053,-0.044l0.054,-0.046l0.053,-0.046l0.051,-0.047l0.053,-0.048l0.051,-0.048l0.05,-0.049l0.05,-0.049l0.049,-0.05l0.05,-0.051l0.047,-0.051l0.048,-0.051l0.047,-0.053l0.046,-0.052l0.046,-0.054l0.045,-0.053l0.044,-0.055l0.044,-0.055l0.043,-0.055l0.042,-0.056l0.041,-0.056l0.041,-0.056l0.041,-0.058l0.039,-0.058l0.039,-0.058l0.038,-0.059l0.037,-0.059l0.037,-0.059l0.035,-0.059l0.036,-0.061l0.035,-0.061l0.033,-0.061l0.033,-0.061l0.032,-0.062l0.031,-0.062l0.031,-0.063l0.03,-0.063l0.029,-0.063l0.028,-0.063l0.028,-0.065l0.027,-0.064l0.025,-0.064l0.026,-0.065l0.024,-0.065l0.024,-0.066l0.022,-0.066l0.022,-0.066l0.022,-0.067l0.02,-0.067l0.02,-0.067l0.018,-0.068l0.018,-0.069l0.018,-0.068l0.016,-0.068l0.015,-0.069l0.015,-0.07l0.014,-0.07l0.013,-0.071l0.012,-0.07l0.011,-0.071l0.011,-0.072l0.01,-0.072l0.008,-0.072l0.008,-0.073l0.007,-0.073l0.006,-0.073l0.006,-0.075l0.004,-0.075l0.003,-0.075l0.003,-0.077l0.001,-0.075l0.001,-0.109l0,-270.546l-0.001,-0.109l-0.001,-0.075l-0.003,-0.077l-0.003,-0.075l-0.004,-0.075l-0.006,-0.075l-0.006,-0.073l-0.007,-0.073l-0.008,-0.073l-0.008,-0.072l-0.01,-0.072l-0.011,-0.072l-0.011,-0.071l-0.012,-0.07l-0.013,-0.071l-0.014,-0.07l-0.015,-0.07l-0.015,-0.069l-0.016,-0.068l-0.018,-0.068l-0.018,-0.069l-0.018,-0.068l-0.02,-0.067l-0.02,-0.067l-0.022,-0.067l-0.022,-0.066l-0.022,-0.066l-0.024,-0.066l-0.024,-0.065l-0.025,-0.065l-0.026,-0.064l-0.027,-0.065l-0.028,-0.064l-0.028,-0.063l-0.029,-0.063l-0.03,-0.063l-0.031,-0.063l-0.031,-0.062l-0.032,-0.062l-0.033,-0.061l-0.034,-0.061l-0.034,-0.061l-0.035,-0.06l-0.036,-0.06l-0.037,-0.059l-0.037,-0.059l-0.038,-0.059l-0.039,-0.058l-0.04,-0.058l-0.04,-0.057l-0.04,-0.057l-0.042,-0.056l-0.043,-0.056l-0.043,-0.055l-0.043,-0.055l-0.044,-0.054l-0.045,-0.054l-0.046,-0.054l-0.046,-0.052l-0.047,-0.053l-0.048,-0.051l-0.047,-0.051l-0.05,-0.051l-0.049,-0.05l-0.05,-0.049l-0.05,-0.049l-0.051,-0.048l-0.052,-0.048l-0.052,-0.046l-0.053,-0.047l-0.054,-0.046l-0.053,-0.044l-0.054,-0.045l-0.056,-0.043l-0.055,-0.043l-0.056,-0.043l-0.056,-0.041l-0.057,-0.041l-0.057,-0.04l-0.058,-0.04l-0.058,-0.039l-0.058,-0.038l-0.059,-0.037l-0.06,-0.037l-0.06,-0.036l-0.06,-0.035l-0.06,-0.034l-0.061,-0.034l-0.062,-0.033l-0.062,-0.032l-0.062,-0.031l-0.062,-0.031l-0.063,-0.03l-0.064,-0.029l-0.063,-0.028l-0.064,-0.027l-0.064,-0.027l-0.065,-0.026l-0.065,-0.025l-0.065,-0.025l-0.066,-0.023l-0.066,-0.023l-0.066,-0.022l-0.067,-0.021l-0.067,-0.021l-0.067,-0.019l-0.068,-0.019l-0.068,-0.018l-0.068,-0.017l-0.069,-0.017l-0.069,-0.015l-0.07,-0.015l-0.07,-0.014l-0.07,-0.013l-0.071,-0.012l-0.071,-0.011l-0.071,-0.011l-0.072,-0.009l-0.073,-0.009l-0.072,-0.008l-0.074,-0.007l-0.074,-0.006l-0.074,-0.005l-0.074,-0.005l-0.076,-0.003l-0.076,-0.002l-0.076,-0.002l-0.109,0l-120.664,0Z" style="fill:#545454;"/></svg>