<?xml version="1.0" encoding="UTF-8" standalone="no"?><!DOCTYPE svg PUBLIC "-//W3C//DTD SVG 1.1//EN" "http://www.w3.org/Graphics/SVG/1.1/DTD/svg11.dtd"><svg width="100%" height="100%" viewBox="0 0 480 480" version="1.1" xmlns="http://www.w3.org/2000/svg" xmlns:xlink="http://www.w3.org/1999/xlink" xml:space="preserve" xmlns:serif="http://www.serif.com/" style="fill-rule:evenodd;clip-rule:evenodd;stroke-linecap:round;stroke-linejoin:round;stroke-miterlimit:1.5;"><g><path d="M293.906,390.778l-107.812,0l18.009,-81.617l71.794,0l18.009,81.617Zm-81.769,-71.617l-13.596,61.617l82.918,0l-13.596,-61.617l-55.726,0Z" style="fill:#545454;"/><path d="M157.74,385.79l164.52,0" style="fill:none;stroke:#545454;stroke-width:10px;"/><path d="M406.043,100.97c0,-6.483 -5.264,-11.748 -11.748,-11.748l-308.59,0c-6.484,0 -11.748,5.265 -11.748,11.748l0,206.468c0,6.483 5.264,11.747 11.748,11.747l308.59,0c6.484,0 11.748,-5.264 11.748,-11.747l0,-206.468Z" style="fill:none;"/><clipPath id="_clip1"><path d="M406.043,100.97c0,-6.483 -5.264,-11.748 -11.748,-11.748l-308.59,0c-6.484,0 -11.748,5.265 -11.748,11.748l0,206.468c0,6.483 5.264,11.747 11.748,11.747l308.59,0c6.484,0 11.748,-5.264 11.748,-11.747l0,-206.468Z"/></clipPath><g clip-path="url(#_clip1)"><path d="M406.043,319.185l-332.086,0l0,-58.627l332.086,0l0,58.627Zm-322.086,-48.627l0,38.627l312.086,0l0,-38.627l-312.086,0Z" style="fill:#545454;"/></g><path d="M394.447,89.223l0.151,0.003l0.151,0.005l0.151,0.007l0.149,0.008l0.15,0.011l0.149,0.012l0.148,0.014l0.148,0.016l0.147,0.018l0.146,0.02l0.147,0.021l0.145,0.023l0.145,0.025l0.144,0.027l0.144,0.028l0.143,0.031l0.142,0.032l0.142,0.033l0.141,0.036l0.14,0.037l0.14,0.038l0.139,0.041l0.138,0.042l0.138,0.044l0.137,0.045l0.136,0.047l0.135,0.049l0.135,0.05l0.133,0.052l0.133,0.053l0.132,0.055l0.132,0.057l0.13,0.058l0.13,0.06l0.129,0.061l0.128,0.062l0.127,0.065l0.126,0.065l0.125,0.067l0.125,0.069l0.123,0.07l0.123,0.071l0.121,0.073l0.121,0.075l0.12,0.075l0.118,0.077l0.118,0.079l0.117,0.08l0.115,0.081l0.115,0.083l0.114,0.084l0.112,0.085l0.112,0.086l0.11,0.088l0.109,0.09l0.109,0.09l0.107,0.092l0.106,0.093l0.105,0.094l0.104,0.095l0.102,0.097l0.102,0.098l0.1,0.099l0.099,0.1l0.098,0.102l0.097,0.102l0.095,0.104l0.094,0.105l0.093,0.106l0.092,0.107l0.09,0.108l0.09,0.11l0.087,0.11l0.087,0.112l0.085,0.112l0.084,0.114l0.083,0.115l0.081,0.115l0.08,0.117l0.078,0.118l0.078,0.118l0.075,0.12l0.075,0.121l0.073,0.121l0.071,0.123l0.07,0.123l0.069,0.125l0.067,0.125l0.065,0.126l0.065,0.127l0.062,0.128l0.061,0.129l0.06,0.13l0.058,0.13l0.057,0.131l0.055,0.133l0.053,0.133l0.052,0.133l0.05,0.135l0.049,0.135l0.047,0.136l0.045,0.137l0.044,0.138l0.042,0.138l0.04,0.139l0.039,0.14l0.037,0.14l0.036,0.141l0.033,0.142l0.032,0.142l0.031,0.143l0.028,0.144l0.027,0.144l0.025,0.145l0.023,0.145l0.021,0.146l0.02,0.147l0.018,0.147l0.016,0.148l0.014,0.148l0.012,0.149l0.011,0.149l0.008,0.15l0.007,0.151l0.005,0.15l0.002,0.152l0.001,0.151l0,206.468l-0.001,0.151l-0.002,0.152l-0.005,0.15l-0.007,0.151l-0.008,0.15l-0.011,0.149l-0.012,0.149l-0.014,0.148l-0.016,0.148l-0.018,0.147l-0.02,0.147l-0.021,0.146l-0.023,0.145l-0.025,0.145l-0.027,0.144l-0.028,0.144l-0.031,0.143l-0.032,0.142l-0.033,0.142l-0.036,0.141l-0.037,0.14l-0.039,0.14l-0.04,0.139l-0.042,0.138l-0.044,0.138l-0.045,0.137l-0.047,0.136l-0.049,0.135l-0.05,0.135l-0.052,0.133l-0.053,0.133l-0.055,0.133l-0.057,0.131l-0.058,0.13l-0.06,0.13l-0.061,0.129l-0.062,0.128l-0.065,0.127l-0.065,0.126l-0.067,0.125l-0.069,0.125l-0.07,0.123l-0.071,0.123l-0.073,0.121l-0.075,0.121l-0.075,0.12l-0.078,0.118l-0.078,0.118l-0.08,0.117l-0.081,0.115l-0.083,0.115l-0.084,0.114l-0.085,0.112l-0.087,0.112l-0.087,0.11l-0.09,0.11l-0.09,0.108l-0.092,0.107l-0.093,0.106l-0.094,0.105l-0.095,0.104l-0.097,0.102l-0.098,0.102l-0.099,0.1l-0.1,0.099l-0.102,0.098l-0.102,0.097l-0.104,0.095l-0.105,0.094l-0.106,0.093l-0.107,0.092l-0.109,0.09l-0.109,0.09l-0.11,0.087l-0.112,0.087l-0.112,0.085l-0.114,0.084l-0.115,0.083l-0.115,0.081l-0.117,0.08l-0.118,0.078l-0.118,0.078l-0.12,0.075l-0.121,0.075l-0.121,0.073l-0.123,0.071l-0.123,0.07l-0.125,0.069l-0.125,0.067l-0.126,0.065l-0.127,0.065l-0.128,0.062l-0.129,0.061l-0.13,0.06l-0.13,0.058l-0.132,0.057l-0.132,0.055l-0.133,0.053l-0.133,0.052l-0.135,0.05l-0.135,0.049l-0.136,0.047l-0.137,0.045l-0.138,0.044l-0.138,0.042l-0.139,0.04l-0.14,0.039l-0.14,0.037l-0.141,0.036l-0.142,0.033l-0.142,0.032l-0.143,0.031l-0.144,0.028l-0.144,0.027l-0.145,0.025l-0.145,0.023l-0.147,0.021l-0.146,0.02l-0.147,0.018l-0.148,0.016l-0.148,0.014l-0.149,0.012l-0.15,0.011l-0.149,0.008l-0.151,0.007l-0.151,0.005l-0.151,0.003l-0.152,0l-308.59,0l-0.152,0l-0.151,-0.003l-0.151,-0.005l-0.151,-0.007l-0.149,-0.008l-0.15,-0.011l-0.149,-0.012l-0.148,-0.014l-0.148,-0.016l-0.147,-0.018l-0.146,-0.02l-0.147,-0.021l-0.145,-0.023l-0.145,-0.025l-0.144,-0.027l-0.144,-0.028l-0.143,-0.031l-0.142,-0.032l-0.142,-0.033l-0.141,-0.036l-0.14,-0.037l-0.14,-0.039l-0.139,-0.04l-0.138,-0.042l-0.138,-0.044l-0.137,-0.045l-0.136,-0.047l-0.135,-0.049l-0.135,-0.05l-0.133,-0.052l-0.133,-0.053l-0.132,-0.055l-0.132,-0.057l-0.13,-0.058l-0.13,-0.06l-0.129,-0.061l-0.128,-0.062l-0.127,-0.065l-0.126,-0.065l-0.125,-0.067l-0.125,-0.069l-0.123,-0.07l-0.123,-0.071l-0.121,-0.073l-0.121,-0.075l-0.12,-0.075l-0.118,-0.078l-0.118,-0.078l-0.117,-0.08l-0.115,-0.081l-0.115,-0.083l-0.114,-0.084l-0.112,-0.085l-0.112,-0.087l-0.11,-0.087l-0.109,-0.09l-0.109,-0.09l-0.107,-0.092l-0.106,-0.093l-0.105,-0.094l-0.104,-0.095l-0.102,-0.097l-0.102,-0.098l-0.1,-0.099l-0.099,-0.1l-0.098,-0.102l-0.097,-0.102l-0.095,-0.104l-0.094,-0.105l-0.093,-0.106l-0.092,-0.107l-0.09,-0.108l-0.09,-0.11l-0.087,-0.11l-0.087,-0.112l-0.085,-0.112l-0.084,-0.114l-0.083,-0.115l-0.081,-0.115l-0.08,-0.117l-0.078,-0.118l-0.078,-0.118l-0.075,-0.12l-0.075,-0.121l-0.073,-0.121l-0.071,-0.123l-0.07,-0.123l-0.069,-0.125l-0.067,-0.125l-0.065,-0.126l-0.065,-0.127l-0.062,-0.128l-0.061,-0.129l-0.06,-0.13l-0.058,-0.13l-0.057,-0.131l-0.055,-0.133l-0.053,-0.133l-0.052,-0.133l-0.05,-0.135l-0.049,-0.135l-0.047,-0.136l-0.045,-0.137l-0.044,-0.138l-0.042,-0.138l-0.04,-0.139l-0.039,-0.14l-0.037,-0.14l-0.036,-0.141l-0.033,-0.142l-0.032,-0.142l-0.031,-0.143l-0.028,-0.144l-0.027,-0.144l-0.025,-0.145l-0.023,-0.145l-0.021,-0.146l-0.02,-0.147l-0.018,-0.147l-0.016,-0.148l-0.014,-0.148l-0.012,-0.149l-0.011,-0.149l-0.008,-0.15l-0.007,-0.151l-0.005,-0.15l-0.002,-0.152l-0.001,-0.151l0,-206.468l0.001,-0.151l0.002,-0.152l0.005,-0.15l0.007,-0.151l0.008,-0.15l0.011,-0.149l0.012,-0.149l0.014,-0.148l0.016,-0.148l0.018,-0.147l0.02,-0.147l0.021,-0.146l0.023,-0.145l0.025,-0.145l0.027,-0.144l0.028,-0.144l0.031,-0.143l0.032,-0.142l0.033,-0.142l0.036,-0.141l0.037,-0.14l0.039,-0.14l0.04,-0.139l0.042,-0.138l0.044,-0.138l0.045,-0.137l0.047,-0.136l0.049,-0.135l0.05,-0.135l0.052,-0.133l0.053,-0.133l0.055,-0.133l0.057,-0.131l0.058,-0.13l0.06,-0.13l0.061,-0.129l0.062,-0.128l0.065,-0.127l0.065,-0.126l0.067,-0.125l0.069,-0.125l0.07,-0.123l0.071,-0.123l0.073,-0.121l0.075,-0.121l0.075,-0.12l0.078,-0.118l0.078,-0.118l0.08,-0.117l0.081,-0.115l0.083,-0.115l0.084,-0.114l0.085,-0.112l0.087,-0.112l0.087,-0.11l0.09,-0.11l0.09,-0.108l0.092,-0.107l0.093,-0.106l0.094,-0.105l0.095,-0.104l0.097,-0.102l0.098,-0.102l0.099,-0.1l0.1,-0.099l0.102,-0.098l0.102,-0.097l0.104,-0.095l0.105,-0.094l0.106,-0.093l0.107,-0.092l0.109,-0.09l0.109,-0.09l0.11,-0.088l0.112,-0.086l0.112,-0.085l0.114,-0.084l0.115,-0.083l0.115,-0.081l0.117,-0.08l0.118,-0.079l0.118,-0.077l0.12,-0.075l0.121,-0.075l0.121,-0.073l0.123,-0.071l0.123,-0.07l0.125,-0.069l0.125,-0.067l0.126,-0.065l0.127,-0.065l0.128,-0.062l0.129,-0.061l0.13,-0.06l0.13,-0.058l0.132,-0.057l0.132,-0.055l0.133,-0.053l0.133,-0.052l0.135,-0.05l0.135,-0.049l0.136,-0.047l0.137,-0.045l0.138,-0.044l0.138,-0.042l0.139,-0.041l0.14,-0.038l0.14,-0.037l0.141,-0.036l0.142,-0.033l0.142,-0.032l0.143,-0.031l0.144,-0.028l0.144,-0.027l0.145,-0.025l0.145,-0.023l0.147,-0.021l0.146,-0.02l0.147,-0.018l0.148,-0.016l0.148,-0.014l0.149,-0.012l0.15,-0.011l0.149,-0.008l0.151,-0.007l0.151,-0.005l0.151,-0.003l0.152,-0.001l308.59,0l0.152,0.001Zm-308.711,9.999l-0.056,0.001l-0.025,0l-0.024,0.001l-0.024,0.001l-0.023,0.001l-0.023,0.002l-0.023,0.002l-0.022,0.002l-0.022,0.002l-0.022,0.003l-0.022,0.003l-0.021,0.003l-0.022,0.004l-0.02,0.003l-0.021,0.004l-0.021,0.004l-0.02,0.004l-0.021,0.005l-0.02,0.005l-0.02,0.005l-0.02,0.005l-0.02,0.006l-0.019,0.005l-0.02,0.006l-0.019,0.006l-0.02,0.007l-0.019,0.007l-0.019,0.006l-0.02,0.008l-0.019,0.007l-0.019,0.008l-0.018,0.008l-0.019,0.008l-0.019,0.008l-0.019,0.009l-0.019,0.008l-0.018,0.01l-0.019,0.009l-0.018,0.01l-0.019,0.01l-0.018,0.01l-0.018,0.01l-0.019,0.011l-0.018,0.011l-0.018,0.011l-0.018,0.011l-0.018,0.012l-0.018,0.012l-0.017,0.011l-0.017,0.013l-0.018,0.013l-0.018,0.012l-0.017,0.013l-0.017,0.014l-0.017,0.013l-0.017,0.014l-0.016,0.014l-0.017,0.014l-0.016,0.014l-0.016,0.015l-0.016,0.015l-0.017,0.015l-0.015,0.015l-0.016,0.015l-0.015,0.016l-0.015,0.015l-0.015,0.016l-0.015,0.016l-0.015,0.017l-0.014,0.016l-0.014,0.017l-0.014,0.016l-0.014,0.017l-0.013,0.017l-0.014,0.017l-0.013,0.017l-0.012,0.018l-0.013,0.017l-0.012,0.018l-0.012,0.017l-0.012,0.018l-0.012,0.018l-0.011,0.018l-0.011,0.018l-0.011,0.018l-0.011,0.018l-0.01,0.019l-0.01,0.018l-0.01,0.018l-0.01,0.019l-0.009,0.018l-0.009,0.019l-0.009,0.019l-0.009,0.019l-0.008,0.019l-0.008,0.018l-0.008,0.019l-0.008,0.019l-0.007,0.019l-0.007,0.019l-0.007,0.02l-0.007,0.019l-0.006,0.02l-0.007,0.019l-0.006,0.019l-0.005,0.02l-0.006,0.02l-0.005,0.02l-0.005,0.02l-0.005,0.02l-0.004,0.02l-0.005,0.021l-0.004,0.021l-0.004,0.02l-0.003,0.021l-0.004,0.022l-0.003,0.021l-0.003,0.021l-0.002,0.023l-0.003,0.022l-0.002,0.022l-0.002,0.023l-0.001,0.023l-0.002,0.023l-0.001,0.024l-0.001,0.024l0,0.024l0,0.057l0,206.404l0,0.057l0,0.024l0.001,0.024l0.001,0.024l0.002,0.023l0.001,0.023l0.002,0.023l0.002,0.022l0.003,0.022l0.002,0.022l0.003,0.022l0.003,0.021l0.004,0.022l0.003,0.021l0.004,0.02l0.004,0.021l0.005,0.021l0.004,0.02l0.005,0.02l0.005,0.02l0.005,0.02l0.006,0.02l0.005,0.019l0.006,0.02l0.007,0.02l0.006,0.019l0.007,0.019l0.007,0.019l0.007,0.02l0.007,0.019l0.008,0.019l0.008,0.019l0.008,0.019l0.008,0.019l0.009,0.018l0.008,0.018l0.01,0.019l0.009,0.019l0.01,0.019l0.01,0.018l0.01,0.018l0.01,0.019l0.011,0.018l0.011,0.018l0.011,0.018l0.011,0.018l0.012,0.018l0.011,0.017l0.013,0.018l0.012,0.018l0.013,0.017l0.012,0.017l0.013,0.018l0.014,0.017l0.013,0.017l0.014,0.017l0.014,0.017l0.014,0.016l0.014,0.016l0.015,0.017l0.015,0.015l0.015,0.016l0.015,0.016l0.016,0.016l0.015,0.015l0.015,0.015l0.017,0.015l0.016,0.016l0.016,0.014l0.016,0.014l0.016,0.014l0.017,0.014l0.018,0.014l0.017,0.014l0.016,0.013l0.017,0.012l0.018,0.014l0.018,0.012l0.017,0.012l0.017,0.012l0.018,0.012l0.019,0.012l0.017,0.011l0.018,0.011l0.019,0.012l0.018,0.01l0.018,0.01l0.018,0.01l0.018,0.01l0.02,0.01l0.018,0.01l0.018,0.008l0.019,0.009l0.019,0.009l0.019,0.008l0.019,0.009l0.018,0.007l0.019,0.008l0.02,0.007l0.02,0.008l0.017,0.006l0.02,0.007l0.02,0.007l0.019,0.006l0.02,0.006l0.02,0.005l0.019,0.006l0.02,0.005l0.02,0.005l0.02,0.005l0.021,0.005l0.021,0.004l0.02,0.004l0.02,0.004l0.021,0.003l0.021,0.004l0.022,0.003l0.022,0.003l0.021,0.002l0.022,0.003l0.023,0.002l0.023,0.002l0.024,0.002l0.022,0.001l0.024,0.001l0.024,0.001l0.025,0l0.057,0l308.526,0l0.057,0l0.025,0l0.024,-0.001l0.024,-0.001l0.022,-0.001l0.024,-0.002l0.023,-0.002l0.023,-0.002l0.022,-0.003l0.021,-0.002l0.022,-0.003l0.022,-0.003l0.021,-0.004l0.021,-0.003l0.02,-0.004l0.02,-0.004l0.021,-0.004l0.021,-0.005l0.02,-0.005l0.02,-0.005l0.02,-0.005l0.02,-0.006l0.02,-0.005l0.019,-0.006l0.019,-0.006l0.02,-0.007l0.02,-0.007l0.017,-0.006l0.02,-0.008l0.02,-0.007l0.019,-0.008l0.018,-0.007l0.019,-0.009l0.02,-0.008l0.018,-0.009l0.019,-0.009l0.018,-0.008l0.018,-0.01l0.019,-0.01l0.019,-0.01l0.019,-0.01l0.017,-0.01l0.018,-0.01l0.019,-0.012l0.018,-0.011l0.017,-0.011l0.019,-0.012l0.018,-0.012l0.017,-0.012l0.018,-0.012l0.017,-0.013l0.017,-0.012l0.017,-0.013l0.018,-0.014l0.016,-0.013l0.018,-0.014l0.017,-0.014l0.015,-0.014l0.017,-0.014l0.016,-0.015l0.016,-0.014l0.017,-0.016l0.015,-0.015l0.015,-0.015l0.016,-0.016l0.016,-0.016l0.014,-0.015l0.015,-0.016l0.015,-0.017l0.014,-0.016l0.014,-0.017l0.014,-0.016l0.014,-0.017l0.013,-0.017l0.014,-0.018l0.013,-0.017l0.012,-0.017l0.013,-0.017l0.012,-0.017l0.013,-0.019l0.011,-0.017l0.012,-0.018l0.011,-0.018l0.011,-0.018l0.012,-0.019l0.01,-0.017l0.01,-0.018l0.011,-0.02l0.009,-0.018l0.01,-0.017l0.009,-0.02l0.009,-0.018l0.009,-0.019l0.009,-0.018l0.008,-0.019l0.009,-0.02l0.007,-0.018l0.008,-0.019l0.007,-0.02l0.007,-0.019l0.008,-0.019l0.006,-0.019l0.006,-0.019l0.007,-0.02l0.006,-0.02l0.005,-0.018l0.006,-0.021l0.005,-0.02l0.005,-0.02l0.005,-0.021l0.004,-0.019l0.005,-0.021l0.004,-0.021l0.004,-0.02l0.003,-0.021l0.004,-0.021l0.003,-0.022l0.003,-0.022l0.002,-0.021l0.003,-0.022l0.002,-0.023l0.002,-0.023l0.001,-0.023l0.002,-0.023l0.001,-0.023l0.001,-0.026l0,-0.024l0,-0.056l0,-206.404l0,-0.056l0,-0.024l-0.001,-0.026l-0.001,-0.023l-0.002,-0.023l-0.001,-0.023l-0.002,-0.023l-0.002,-0.023l-0.003,-0.022l-0.002,-0.021l-0.003,-0.022l-0.003,-0.022l-0.004,-0.021l-0.003,-0.021l-0.004,-0.02l-0.004,-0.021l-0.005,-0.021l-0.004,-0.019l-0.005,-0.021l-0.005,-0.02l-0.005,-0.02l-0.006,-0.021l-0.005,-0.019l-0.006,-0.019l-0.007,-0.02l-0.006,-0.019l-0.007,-0.019l-0.007,-0.02l-0.007,-0.018l-0.007,-0.019l-0.008,-0.02l-0.007,-0.018l-0.009,-0.02l-0.008,-0.018l-0.009,-0.019l-0.009,-0.019l-0.009,-0.019l-0.009,-0.018l-0.01,-0.018l-0.01,-0.019l-0.01,-0.019l-0.01,-0.018l-0.01,-0.017l-0.012,-0.019l-0.011,-0.018l-0.011,-0.018l-0.012,-0.018l-0.011,-0.017l-0.013,-0.018l-0.012,-0.018l-0.013,-0.017l-0.012,-0.018l-0.013,-0.017l-0.014,-0.017l-0.014,-0.017l-0.013,-0.017l-0.013,-0.016l-0.015,-0.017l-0.014,-0.016l-0.015,-0.017l-0.015,-0.016l-0.014,-0.015l-0.016,-0.016l-0.016,-0.016l-0.015,-0.015l-0.015,-0.015l-0.017,-0.016l-0.015,-0.014l-0.017,-0.015l-0.017,-0.014l-0.015,-0.014l-0.017,-0.014l-0.017,-0.014l-0.017,-0.013l-0.018,-0.014l-0.017,-0.013l-0.017,-0.012l-0.017,-0.013l-0.018,-0.013l-0.018,-0.012l-0.017,-0.011l-0.018,-0.012l-0.018,-0.011l-0.018,-0.011l-0.018,-0.011l-0.018,-0.011l-0.019,-0.01l-0.018,-0.011l-0.019,-0.009l-0.018,-0.01l-0.019,-0.009l-0.018,-0.009l-0.019,-0.009l-0.018,-0.009l-0.02,-0.008l-0.019,-0.008l-0.018,-0.008l-0.02,-0.008l-0.019,-0.007l-0.019,-0.008l-0.019,-0.006l-0.019,-0.007l-0.02,-0.007l-0.019,-0.006l-0.019,-0.006l-0.02,-0.005l-0.02,-0.006l-0.02,-0.005l-0.02,-0.005l-0.02,-0.005l-0.021,-0.005l-0.02,-0.004l-0.021,-0.004l-0.021,-0.004l-0.02,-0.003l-0.022,-0.004l-0.021,-0.003l-0.022,-0.003l-0.022,-0.003l-0.022,-0.002l-0.022,-0.002l-0.023,-0.002l-0.023,-0.002l-0.023,-0.001l-0.024,-0.001l-0.024,-0.001l-0.025,0l-0.056,-0.001l-308.528,0Z" style="fill:#545454;"/></g></svg>