<?xml version="1.0" encoding="UTF-8" standalone="no"?><!DOCTYPE svg PUBLIC "-//W3C//DTD SVG 1.1//EN" "http://www.w3.org/Graphics/SVG/1.1/DTD/svg11.dtd"><svg width="100%" height="100%" viewBox="0 0 480 480" version="1.1" xmlns="http://www.w3.org/2000/svg" xmlns:xlink="http://www.w3.org/1999/xlink" xml:space="preserve" xmlns:serif="http://www.serif.com/" style="fill-rule:evenodd;clip-rule:evenodd;stroke-linejoin:round;stroke-miterlimit:1.41421;"><g><path d="M283.584,209.245l61.023,72.199l-122.045,0l61.022,-72.199Z" style="fill:#545454;"/><path d="M212.45,175.632l77.056,105.812l-154.113,0l77.057,-105.812Z" style="fill:#545454;"/></g><path d="M240.488,88.918l0.488,0.003l0.488,0.004l0.487,0.005l0.487,0.007l0.487,0.008l0.486,0.01l0.486,0.012l0.485,0.013l0.485,0.015l0.485,0.016l0.484,0.017l0.484,0.02l0.484,0.02l0.483,0.023l0.483,0.023l0.482,0.026l0.482,0.026l0.482,0.029l0.481,0.029l0.48,0.032l0.481,0.032l0.48,0.035l0.479,0.035l0.479,0.038l0.479,0.038l0.478,0.041l0.478,0.041l0.477,0.044l0.477,0.044l0.477,0.047l0.476,0.047l0.476,0.049l0.475,0.051l0.475,0.052l0.474,0.054l0.474,0.055l0.474,0.056l0.473,0.058l0.472,0.059l0.472,0.061l0.472,0.063l0.471,0.063l0.471,0.065l0.47,0.067l0.47,0.068l0.47,0.07l0.468,0.071l0.469,0.072l0.468,0.074l0.467,0.075l0.467,0.077l0.467,0.078l0.466,0.08l0.465,0.081l0.466,0.082l0.464,0.084l0.464,0.085l0.464,0.087l0.463,0.088l0.463,0.089l0.462,0.091l0.461,0.093l0.461,0.093l0.461,0.095l0.46,0.097l0.46,0.098l0.459,0.099l0.458,0.101l0.458,0.102l0.458,0.103l0.457,0.105l0.456,0.106l0.456,0.108l0.455,0.109l0.455,0.11l0.455,0.112l0.453,0.113l0.454,0.115l0.452,0.116l0.452,0.117l0.452,0.118l0.451,0.12l0.45,0.121l0.45,0.123l0.45,0.124l0.449,0.125l0.448,0.127l0.448,0.128l0.447,0.129l0.446,0.131l0.446,0.132l0.446,0.134l0.445,0.134l0.444,0.136l0.444,0.138l0.443,0.138l0.442,0.14l0.442,0.142l0.441,0.142l0.441,0.144l0.44,0.146l0.44,0.146l0.439,0.148l0.438,0.149l0.438,0.151l0.437,0.152l0.437,0.153l0.436,0.154l0.435,0.156l0.435,0.157l0.434,0.158l0.433,0.16l0.433,0.161l0.432,0.162l0.432,0.164l0.431,0.164l0.43,0.166l0.43,0.168l0.429,0.168l0.429,0.17l0.427,0.171l0.427,0.173l0.427,0.173l0.426,0.175l0.425,0.176l0.425,0.178l0.424,0.178l0.423,0.18l0.422,0.181l0.422,0.183l0.422,0.183l0.42,0.185l0.42,0.186l0.419,0.188l0.419,0.188l0.418,0.19l0.417,0.191l0.417,0.193l0.416,0.193l0.415,0.195l0.414,0.196l0.414,0.197l0.413,0.198l0.413,0.2l0.411,0.201l0.411,0.202l0.411,0.203l0.409,0.205l0.409,0.205l0.408,0.207l0.408,0.208l0.407,0.21l0.406,0.21l0.405,0.212l0.405,0.212l0.404,0.215l0.403,0.215l0.402,0.216l0.402,0.218l0.401,0.218l0.4,0.22l0.4,0.221l0.399,0.223l0.398,0.223l0.397,0.225l0.397,0.225l0.396,0.227l0.395,0.228l0.394,0.23l0.393,0.23l0.393,0.232l0.392,0.232l0.392,0.234l0.39,0.235l0.39,0.236l0.389,0.238l0.388,0.238l0.388,0.239l0.386,0.241l0.386,0.242l0.385,0.243l0.385,0.244l0.383,0.245l0.383,0.246l0.382,0.248l0.381,0.248l0.38,0.25l0.38,0.251l0.379,0.252l0.378,0.253l0.377,0.254l0.376,0.255l0.376,0.256l0.375,0.258l0.374,0.258l0.373,0.26l0.372,0.26l0.372,0.262l0.37,0.263l0.37,0.264l0.369,0.265l0.369,0.266l0.367,0.267l0.366,0.269l0.366,0.269l0.365,0.27l0.364,0.272l0.363,0.272l0.363,0.274l0.361,0.274l0.361,0.276l0.359,0.277l0.359,0.278l0.358,0.279l0.358,0.28l0.356,0.281l0.356,0.282l0.354,0.283l0.354,0.284l0.353,0.285l0.352,0.286l0.351,0.287l0.35,0.289l0.35,0.289l0.348,0.29l0.348,0.291l0.346,0.293l0.346,0.293l0.345,0.294l0.344,0.296l0.343,0.296l0.343,0.298l0.341,0.298l0.341,0.299l0.339,0.301l0.339,0.301l0.338,0.303l0.336,0.303l0.336,0.305l0.335,0.305l0.334,0.306l0.333,0.308l0.333,0.308l0.331,0.31l0.33,0.31l0.33,0.311l0.328,0.312l0.328,0.314l0.326,0.314l0.326,0.315l0.325,0.316l0.324,0.317l0.323,0.318l0.322,0.32l0.32,0.32l0.32,0.32l0.32,0.322l0.318,0.323l0.317,0.324l0.316,0.325l0.315,0.326l0.314,0.326l0.314,0.328l0.312,0.328l0.311,0.33l0.31,0.33l0.31,0.331l0.308,0.333l0.308,0.333l0.306,0.334l0.305,0.335l0.305,0.336l0.303,0.336l0.303,0.338l0.301,0.339l0.301,0.339l0.299,0.341l0.298,0.341l0.298,0.343l0.296,0.343l0.296,0.344l0.294,0.345l0.293,0.346l0.293,0.346l0.291,0.348l0.29,0.348l0.289,0.35l0.289,0.35l0.287,0.351l0.286,0.352l0.285,0.353l0.284,0.354l0.283,0.354l0.282,0.356l0.281,0.356l0.28,0.358l0.279,0.358l0.278,0.359l0.277,0.359l0.276,0.361l0.274,0.361l0.274,0.363l0.272,0.363l0.272,0.364l0.27,0.365l0.269,0.366l0.269,0.366l0.267,0.367l0.266,0.369l0.265,0.369l0.264,0.37l0.263,0.37l0.262,0.372l0.26,0.372l0.26,0.373l0.258,0.374l0.258,0.375l0.256,0.376l0.255,0.376l0.254,0.377l0.253,0.378l0.252,0.379l0.251,0.38l0.25,0.38l0.248,0.381l0.248,0.382l0.246,0.383l0.245,0.383l0.244,0.385l0.243,0.385l0.242,0.386l0.241,0.386l0.239,0.388l0.238,0.388l0.238,0.389l0.236,0.39l0.235,0.39l0.234,0.392l0.232,0.392l0.232,0.393l0.23,0.393l0.23,0.394l0.228,0.395l0.227,0.396l0.225,0.397l0.225,0.397l0.223,0.398l0.223,0.399l0.221,0.4l0.22,0.4l0.218,0.401l0.218,0.402l0.216,0.402l0.215,0.403l0.215,0.404l0.212,0.405l0.212,0.405l0.21,0.406l0.21,0.407l0.208,0.408l0.207,0.408l0.205,0.409l0.205,0.409l0.203,0.411l0.202,0.411l0.201,0.411l0.2,0.413l0.198,0.413l0.197,0.414l0.196,0.414l0.195,0.415l0.193,0.416l0.193,0.417l0.191,0.417l0.19,0.418l0.188,0.419l0.188,0.419l0.186,0.42l0.185,0.42l0.183,0.422l0.183,0.422l0.181,0.422l0.18,0.423l0.178,0.424l0.178,0.425l0.176,0.425l0.175,0.426l0.173,0.427l0.173,0.427l0.171,0.427l0.17,0.429l0.168,0.429l0.168,0.43l0.166,0.43l0.164,0.431l0.164,0.432l0.162,0.432l0.161,0.433l0.16,0.433l0.158,0.434l0.157,0.435l0.156,0.435l0.154,0.436l0.153,0.437l0.152,0.437l0.151,0.438l0.149,0.438l0.148,0.439l0.146,0.44l0.146,0.44l0.144,0.441l0.142,0.441l0.142,0.442l0.14,0.442l0.138,0.443l0.138,0.444l0.136,0.444l0.134,0.445l0.134,0.446l0.132,0.446l0.131,0.446l0.129,0.447l0.128,0.448l0.127,0.448l0.125,0.449l0.124,0.45l0.123,0.45l0.121,0.45l0.12,0.451l0.118,0.452l0.117,0.452l0.116,0.452l0.115,0.454l0.113,0.453l0.112,0.455l0.11,0.455l0.109,0.455l0.108,0.456l0.106,0.456l0.105,0.457l0.103,0.458l0.102,0.458l0.101,0.458l0.099,0.459l0.098,0.46l0.097,0.46l0.095,0.461l0.093,0.461l0.093,0.461l0.091,0.462l0.089,0.463l0.088,0.463l0.087,0.464l0.085,0.464l0.084,0.464l0.082,0.466l0.081,0.465l0.08,0.466l0.078,0.467l0.077,0.467l0.075,0.467l0.074,0.468l0.072,0.469l0.071,0.468l0.07,0.47l0.068,0.47l0.067,0.47l0.065,0.471l0.063,0.471l0.063,0.472l0.061,0.472l0.059,0.472l0.058,0.473l0.056,0.474l0.055,0.474l0.054,0.474l0.052,0.475l0.051,0.475l0.049,0.476l0.047,0.476l0.047,0.477l0.044,0.477l0.044,0.477l0.041,0.478l0.041,0.478l0.038,0.479l0.038,0.479l0.035,0.479l0.035,0.48l0.032,0.481l0.032,0.48l0.029,0.481l0.029,0.482l0.026,0.482l0.026,0.482l0.023,0.483l0.023,0.483l0.02,0.484l0.02,0.484l0.017,0.484l0.016,0.485l0.015,0.485l0.013,0.485l0.012,0.486l0.01,0.486l0.008,0.487l0.007,0.487l0.005,0.487l0.004,0.488l0.003,0.488l0,0.488l0,0.488l-0.003,0.488l-0.004,0.488l-0.005,0.487l-0.007,0.487l-0.008,0.487l-0.01,0.486l-0.012,0.486l-0.013,0.485l-0.015,0.485l-0.016,0.485l-0.017,0.484l-0.02,0.484l-0.02,0.484l-0.023,0.483l-0.023,0.483l-0.026,0.482l-0.026,0.482l-0.029,0.482l-0.029,0.481l-0.032,0.48l-0.032,0.481l-0.035,0.48l-0.035,0.479l-0.038,0.479l-0.038,0.479l-0.041,0.478l-0.041,0.478l-0.044,0.477l-0.044,0.477l-0.047,0.477l-0.047,0.476l-0.049,0.476l-0.051,0.475l-0.052,0.475l-0.054,0.474l-0.055,0.474l-0.056,0.474l-0.058,0.473l-0.059,0.472l-0.061,0.472l-0.063,0.472l-0.063,0.471l-0.065,0.471l-0.067,0.47l-0.068,0.47l-0.07,0.47l-0.071,0.468l-0.072,0.469l-0.074,0.468l-0.075,0.467l-0.077,0.467l-0.078,0.467l-0.08,0.466l-0.081,0.465l-0.082,0.466l-0.084,0.464l-0.085,0.464l-0.087,0.464l-0.088,0.463l-0.089,0.463l-0.091,0.462l-0.093,0.461l-0.093,0.461l-0.095,0.461l-0.097,0.46l-0.098,0.46l-0.099,0.459l-0.101,0.458l-0.102,0.458l-0.103,0.458l-0.105,0.457l-0.106,0.456l-0.108,0.456l-0.109,0.455l-0.11,0.455l-0.112,0.455l-0.113,0.453l-0.115,0.454l-0.116,0.452l-0.117,0.452l-0.118,0.452l-0.12,0.451l-0.121,0.45l-0.123,0.45l-0.124,0.45l-0.125,0.449l-0.127,0.448l-0.128,0.448l-0.129,0.447l-0.131,0.446l-0.132,0.446l-0.134,0.446l-0.134,0.445l-0.136,0.444l-0.138,0.444l-0.138,0.443l-0.14,0.442l-0.142,0.442l-0.142,0.441l-0.144,0.441l-0.146,0.44l-0.146,0.44l-0.148,0.439l-0.149,0.438l-0.151,0.438l-0.152,0.437l-0.153,0.437l-0.154,0.436l-0.156,0.435l-0.157,0.435l-0.158,0.434l-0.16,0.433l-0.161,0.433l-0.162,0.432l-0.164,0.432l-0.164,0.431l-0.166,0.43l-0.168,0.43l-0.168,0.429l-0.17,0.429l-0.171,0.427l-0.173,0.427l-0.173,0.427l-0.175,0.426l-0.176,0.425l-0.178,0.425l-0.178,0.424l-0.18,0.423l-0.181,0.422l-0.183,0.422l-0.183,0.422l-0.185,0.42l-0.186,0.42l-0.188,0.419l-0.188,0.419l-0.19,0.418l-0.191,0.417l-0.193,0.417l-0.193,0.416l-0.195,0.415l-0.196,0.414l-0.197,0.414l-0.198,0.413l-0.2,0.413l-0.201,0.411l-0.202,0.411l-0.203,0.411l-0.205,0.409l-0.205,0.409l-0.207,0.408l-0.208,0.408l-0.21,0.407l-0.21,0.406l-0.212,0.405l-0.212,0.405l-0.215,0.404l-0.215,0.403l-0.216,0.402l-0.218,0.402l-0.218,0.401l-0.22,0.4l-0.221,0.4l-0.223,0.399l-0.223,0.398l-0.225,0.397l-0.225,0.397l-0.227,0.396l-0.228,0.395l-0.23,0.394l-0.23,0.393l-0.232,0.393l-0.232,0.392l-0.234,0.392l-0.235,0.39l-0.236,0.39l-0.238,0.389l-0.238,0.388l-0.239,0.388l-0.241,0.386l-0.242,0.386l-0.243,0.385l-0.244,0.385l-0.245,0.383l-0.246,0.383l-0.248,0.382l-0.248,0.381l-0.25,0.38l-0.251,0.38l-0.252,0.379l-0.253,0.378l-0.254,0.377l-0.255,0.376l-0.256,0.376l-0.258,0.375l-0.258,0.374l-0.26,0.373l-0.26,0.372l-0.262,0.372l-0.263,0.37l-0.264,0.37l-0.265,0.369l-0.266,0.369l-0.267,0.367l-0.269,0.366l-0.269,0.366l-0.27,0.365l-0.272,0.364l-0.272,0.363l-0.274,0.363l-0.274,0.361l-0.276,0.361l-0.277,0.359l-0.278,0.359l-0.279,0.358l-0.28,0.358l-0.281,0.356l-0.282,0.356l-0.283,0.354l-0.284,0.354l-0.285,0.353l-0.286,0.352l-0.287,0.351l-0.289,0.35l-0.289,0.35l-0.29,0.348l-0.291,0.348l-0.293,0.346l-0.293,0.346l-0.294,0.345l-0.296,0.344l-0.296,0.343l-0.298,0.343l-0.298,0.341l-0.299,0.341l-0.301,0.339l-0.301,0.339l-0.303,0.338l-0.303,0.336l-0.305,0.336l-0.305,0.335l-0.306,0.334l-0.308,0.333l-0.308,0.333l-0.31,0.331l-0.31,0.33l-0.311,0.33l-0.312,0.328l-0.314,0.328l-0.314,0.326l-0.315,0.326l-0.316,0.325l-0.317,0.324l-0.318,0.323l-0.32,0.322l-0.32,0.32l-0.32,0.32l-0.322,0.32l-0.323,0.318l-0.324,0.317l-0.325,0.316l-0.326,0.315l-0.326,0.314l-0.328,0.314l-0.328,0.312l-0.33,0.311l-0.33,0.31l-0.331,0.31l-0.333,0.308l-0.333,0.308l-0.334,0.306l-0.335,0.305l-0.336,0.305l-0.336,0.303l-0.338,0.303l-0.339,0.301l-0.339,0.301l-0.341,0.299l-0.341,0.298l-0.343,0.298l-0.343,0.296l-0.344,0.296l-0.345,0.294l-0.346,0.293l-0.346,0.293l-0.348,0.291l-0.348,0.29l-0.35,0.289l-0.35,0.289l-0.351,0.287l-0.352,0.286l-0.353,0.285l-0.354,0.284l-0.354,0.283l-0.356,0.282l-0.356,0.281l-0.358,0.28l-0.358,0.279l-0.359,0.278l-0.359,0.277l-0.361,0.276l-0.361,0.274l-0.363,0.274l-0.363,0.272l-0.364,0.272l-0.365,0.27l-0.366,0.269l-0.366,0.269l-0.367,0.267l-0.369,0.266l-0.369,0.265l-0.37,0.264l-0.37,0.263l-0.372,0.262l-0.372,0.26l-0.373,0.26l-0.374,0.258l-0.375,0.258l-0.376,0.256l-0.376,0.255l-0.377,0.254l-0.378,0.253l-0.379,0.252l-0.38,0.251l-0.38,0.25l-0.381,0.248l-0.382,0.248l-0.383,0.246l-0.383,0.245l-0.385,0.244l-0.385,0.243l-0.386,0.242l-0.386,0.241l-0.388,0.239l-0.388,0.238l-0.389,0.238l-0.39,0.236l-0.39,0.235l-0.392,0.234l-0.392,0.232l-0.393,0.232l-0.393,0.23l-0.394,0.23l-0.395,0.228l-0.396,0.227l-0.397,0.225l-0.397,0.225l-0.398,0.223l-0.399,0.223l-0.4,0.221l-0.4,0.22l-0.401,0.218l-0.402,0.218l-0.402,0.216l-0.403,0.215l-0.404,0.215l-0.405,0.212l-0.405,0.212l-0.406,0.21l-0.407,0.21l-0.408,0.208l-0.408,0.207l-0.409,0.205l-0.409,0.205l-0.411,0.203l-0.411,0.202l-0.411,0.201l-0.413,0.2l-0.413,0.198l-0.414,0.197l-0.414,0.196l-0.415,0.195l-0.416,0.193l-0.417,0.193l-0.417,0.191l-0.418,0.19l-0.419,0.188l-0.419,0.188l-0.42,0.186l-0.42,0.185l-0.422,0.183l-0.422,0.183l-0.422,0.181l-0.423,0.18l-0.424,0.178l-0.425,0.178l-0.425,0.176l-0.426,0.175l-0.427,0.173l-0.427,0.173l-0.427,0.171l-0.429,0.17l-0.429,0.168l-0.43,0.168l-0.43,0.166l-0.431,0.164l-0.432,0.164l-0.432,0.162l-0.433,0.161l-0.433,0.16l-0.434,0.158l-0.435,0.157l-0.435,0.156l-0.436,0.154l-0.437,0.153l-0.437,0.152l-0.438,0.151l-0.438,0.149l-0.439,0.148l-0.44,0.146l-0.44,0.146l-0.441,0.144l-0.441,0.142l-0.442,0.142l-0.442,0.14l-0.443,0.138l-0.444,0.138l-0.444,0.136l-0.445,0.134l-0.446,0.134l-0.446,0.132l-0.446,0.131l-0.447,0.129l-0.448,0.128l-0.448,0.127l-0.449,0.125l-0.45,0.124l-0.45,0.123l-0.45,0.121l-0.451,0.12l-0.452,0.118l-0.452,0.117l-0.452,0.116l-0.454,0.115l-0.453,0.113l-0.455,0.112l-0.455,0.11l-0.455,0.109l-0.456,0.108l-0.456,0.106l-0.457,0.105l-0.458,0.103l-0.458,0.102l-0.458,0.101l-0.459,0.099l-0.46,0.098l-0.46,0.097l-0.461,0.095l-0.461,0.093l-0.461,0.093l-0.462,0.091l-0.463,0.089l-0.463,0.088l-0.464,0.087l-0.464,0.085l-0.464,0.084l-0.466,0.082l-0.465,0.081l-0.466,0.08l-0.467,0.078l-0.467,0.077l-0.467,0.075l-0.468,0.074l-0.469,0.072l-0.468,0.071l-0.47,0.07l-0.47,0.068l-0.47,0.067l-0.471,0.065l-0.471,0.063l-0.472,0.063l-0.472,0.061l-0.472,0.059l-0.473,0.058l-0.474,0.056l-0.474,0.055l-0.474,0.054l-0.475,0.052l-0.475,0.051l-0.476,0.049l-0.476,0.047l-0.477,0.047l-0.477,0.044l-0.477,0.044l-0.478,0.041l-0.478,0.041l-0.479,0.038l-0.479,0.038l-0.479,0.035l-0.48,0.035l-0.481,0.032l-0.48,0.032l-0.481,0.029l-0.482,0.029l-0.482,0.026l-0.482,0.026l-0.483,0.023l-0.483,0.023l-0.484,0.02l-0.484,0.02l-0.484,0.017l-0.485,0.016l-0.485,0.015l-0.485,0.013l-0.486,0.012l-0.486,0.01l-0.487,0.008l-0.487,0.007l-0.487,0.005l-0.488,0.004l-0.488,0.003l-0.488,0l-0.488,0l-0.488,-0.003l-0.488,-0.004l-0.487,-0.005l-0.487,-0.007l-0.487,-0.008l-0.486,-0.01l-0.486,-0.012l-0.485,-0.013l-0.485,-0.015l-0.485,-0.016l-0.484,-0.017l-0.484,-0.02l-0.484,-0.02l-0.483,-0.023l-0.483,-0.023l-0.482,-0.026l-0.482,-0.026l-0.482,-0.029l-0.481,-0.029l-0.48,-0.032l-0.481,-0.032l-0.48,-0.035l-0.479,-0.035l-0.479,-0.038l-0.479,-0.038l-0.478,-0.041l-0.478,-0.041l-0.477,-0.044l-0.477,-0.044l-0.477,-0.047l-0.476,-0.047l-0.476,-0.049l-0.475,-0.051l-0.475,-0.052l-0.474,-0.054l-0.474,-0.055l-0.474,-0.056l-0.473,-0.058l-0.472,-0.059l-0.472,-0.061l-0.472,-0.063l-0.471,-0.063l-0.471,-0.065l-0.47,-0.067l-0.47,-0.068l-0.47,-0.07l-0.468,-0.071l-0.469,-0.072l-0.468,-0.074l-0.467,-0.075l-0.467,-0.077l-0.467,-0.078l-0.466,-0.08l-0.465,-0.081l-0.466,-0.082l-0.464,-0.084l-0.464,-0.085l-0.464,-0.087l-0.463,-0.088l-0.463,-0.089l-0.462,-0.091l-0.461,-0.093l-0.461,-0.093l-0.461,-0.095l-0.46,-0.097l-0.46,-0.098l-0.459,-0.099l-0.458,-0.101l-0.458,-0.102l-0.458,-0.103l-0.457,-0.105l-0.456,-0.106l-0.456,-0.108l-0.455,-0.109l-0.455,-0.11l-0.455,-0.112l-0.453,-0.113l-0.454,-0.115l-0.452,-0.116l-0.452,-0.117l-0.452,-0.118l-0.451,-0.12l-0.45,-0.121l-0.45,-0.123l-0.45,-0.124l-0.449,-0.125l-0.448,-0.127l-0.448,-0.128l-0.447,-0.129l-0.446,-0.131l-0.446,-0.132l-0.446,-0.134l-0.445,-0.134l-0.444,-0.136l-0.444,-0.138l-0.443,-0.138l-0.442,-0.14l-0.442,-0.142l-0.441,-0.142l-0.441,-0.144l-0.44,-0.146l-0.44,-0.146l-0.439,-0.148l-0.438,-0.149l-0.438,-0.151l-0.437,-0.152l-0.437,-0.153l-0.436,-0.154l-0.435,-0.156l-0.435,-0.157l-0.434,-0.158l-0.433,-0.16l-0.433,-0.161l-0.432,-0.162l-0.432,-0.164l-0.431,-0.164l-0.43,-0.166l-0.43,-0.168l-0.429,-0.168l-0.429,-0.17l-0.427,-0.171l-0.427,-0.173l-0.427,-0.173l-0.426,-0.175l-0.425,-0.176l-0.425,-0.178l-0.424,-0.178l-0.423,-0.18l-0.422,-0.181l-0.422,-0.183l-0.422,-0.183l-0.42,-0.185l-0.42,-0.186l-0.419,-0.188l-0.419,-0.188l-0.418,-0.19l-0.417,-0.191l-0.417,-0.193l-0.416,-0.193l-0.415,-0.195l-0.414,-0.196l-0.414,-0.197l-0.413,-0.198l-0.413,-0.2l-0.411,-0.201l-0.411,-0.202l-0.411,-0.203l-0.409,-0.205l-0.409,-0.205l-0.408,-0.207l-0.408,-0.208l-0.407,-0.21l-0.406,-0.21l-0.405,-0.212l-0.405,-0.212l-0.404,-0.215l-0.403,-0.215l-0.402,-0.216l-0.402,-0.218l-0.401,-0.218l-0.4,-0.22l-0.4,-0.221l-0.399,-0.223l-0.398,-0.223l-0.397,-0.225l-0.397,-0.225l-0.396,-0.227l-0.395,-0.228l-0.394,-0.23l-0.393,-0.23l-0.393,-0.232l-0.392,-0.232l-0.392,-0.234l-0.39,-0.235l-0.39,-0.236l-0.389,-0.238l-0.388,-0.238l-0.388,-0.239l-0.386,-0.241l-0.386,-0.242l-0.385,-0.243l-0.385,-0.244l-0.383,-0.245l-0.383,-0.246l-0.382,-0.248l-0.381,-0.248l-0.38,-0.25l-0.38,-0.251l-0.379,-0.252l-0.378,-0.253l-0.377,-0.254l-0.376,-0.255l-0.376,-0.256l-0.375,-0.258l-0.374,-0.258l-0.373,-0.26l-0.372,-0.26l-0.372,-0.262l-0.37,-0.263l-0.37,-0.264l-0.369,-0.265l-0.369,-0.266l-0.367,-0.267l-0.366,-0.269l-0.366,-0.269l-0.365,-0.27l-0.364,-0.272l-0.363,-0.272l-0.363,-0.274l-0.361,-0.274l-0.361,-0.276l-0.359,-0.277l-0.359,-0.278l-0.358,-0.279l-0.358,-0.28l-0.356,-0.281l-0.356,-0.282l-0.354,-0.283l-0.354,-0.284l-0.353,-0.285l-0.352,-0.286l-0.351,-0.287l-0.35,-0.289l-0.35,-0.289l-0.348,-0.29l-0.348,-0.291l-0.346,-0.293l-0.346,-0.293l-0.345,-0.294l-0.344,-0.296l-0.343,-0.296l-0.343,-0.298l-0.341,-0.298l-0.341,-0.299l-0.339,-0.301l-0.339,-0.301l-0.338,-0.303l-0.336,-0.303l-0.336,-0.305l-0.335,-0.305l-0.334,-0.306l-0.333,-0.308l-0.333,-0.308l-0.331,-0.31l-0.33,-0.31l-0.33,-0.311l-0.328,-0.312l-0.328,-0.314l-0.326,-0.314l-0.326,-0.315l-0.325,-0.316l-0.324,-0.317l-0.323,-0.318l-0.322,-0.32l-0.32,-0.32l-0.32,-0.32l-0.32,-0.322l-0.318,-0.323l-0.317,-0.324l-0.316,-0.325l-0.315,-0.326l-0.314,-0.326l-0.314,-0.328l-0.312,-0.328l-0.311,-0.33l-0.31,-0.33l-0.31,-0.331l-0.308,-0.333l-0.308,-0.333l-0.306,-0.334l-0.305,-0.335l-0.305,-0.336l-0.303,-0.336l-0.303,-0.338l-0.301,-0.339l-0.301,-0.339l-0.299,-0.341l-0.298,-0.341l-0.298,-0.343l-0.296,-0.343l-0.296,-0.344l-0.294,-0.345l-0.293,-0.346l-0.293,-0.346l-0.291,-0.348l-0.29,-0.348l-0.289,-0.35l-0.289,-0.35l-0.287,-0.351l-0.286,-0.352l-0.285,-0.353l-0.284,-0.354l-0.283,-0.354l-0.282,-0.356l-0.281,-0.356l-0.28,-0.358l-0.279,-0.358l-0.278,-0.359l-0.277,-0.359l-0.276,-0.361l-0.274,-0.361l-0.274,-0.363l-0.272,-0.363l-0.272,-0.364l-0.27,-0.365l-0.269,-0.366l-0.269,-0.366l-0.267,-0.367l-0.266,-0.369l-0.265,-0.369l-0.264,-0.37l-0.263,-0.37l-0.262,-0.372l-0.26,-0.372l-0.26,-0.373l-0.258,-0.374l-0.258,-0.375l-0.256,-0.376l-0.255,-0.376l-0.254,-0.377l-0.253,-0.378l-0.252,-0.379l-0.251,-0.38l-0.25,-0.38l-0.248,-0.381l-0.248,-0.382l-0.246,-0.383l-0.245,-0.383l-0.244,-0.385l-0.243,-0.385l-0.242,-0.386l-0.241,-0.386l-0.239,-0.388l-0.238,-0.388l-0.238,-0.389l-0.236,-0.39l-0.235,-0.39l-0.234,-0.392l-0.232,-0.392l-0.232,-0.393l-0.23,-0.393l-0.23,-0.394l-0.228,-0.395l-0.227,-0.396l-0.225,-0.397l-0.225,-0.397l-0.223,-0.398l-0.223,-0.399l-0.221,-0.4l-0.22,-0.4l-0.218,-0.401l-0.218,-0.402l-0.216,-0.402l-0.215,-0.403l-0.215,-0.404l-0.212,-0.405l-0.212,-0.405l-0.21,-0.406l-0.21,-0.407l-0.208,-0.408l-0.207,-0.408l-0.205,-0.409l-0.205,-0.409l-0.203,-0.411l-0.202,-0.411l-0.201,-0.411l-0.2,-0.413l-0.198,-0.413l-0.197,-0.414l-0.196,-0.414l-0.195,-0.415l-0.193,-0.416l-0.193,-0.417l-0.191,-0.417l-0.19,-0.418l-0.188,-0.419l-0.188,-0.419l-0.186,-0.42l-0.185,-0.42l-0.183,-0.422l-0.183,-0.422l-0.181,-0.422l-0.18,-0.423l-0.178,-0.424l-0.178,-0.425l-0.176,-0.425l-0.175,-0.426l-0.173,-0.427l-0.173,-0.427l-0.171,-0.427l-0.17,-0.429l-0.168,-0.429l-0.168,-0.43l-0.166,-0.43l-0.164,-0.431l-0.164,-0.432l-0.162,-0.432l-0.161,-0.433l-0.16,-0.433l-0.158,-0.434l-0.157,-0.435l-0.156,-0.435l-0.154,-0.436l-0.153,-0.437l-0.152,-0.437l-0.151,-0.438l-0.149,-0.438l-0.148,-0.439l-0.146,-0.44l-0.146,-0.44l-0.144,-0.441l-0.142,-0.441l-0.142,-0.442l-0.14,-0.442l-0.138,-0.443l-0.138,-0.444l-0.136,-0.444l-0.134,-0.445l-0.134,-0.446l-0.132,-0.446l-0.131,-0.446l-0.129,-0.447l-0.128,-0.448l-0.127,-0.448l-0.125,-0.449l-0.124,-0.45l-0.123,-0.45l-0.121,-0.45l-0.12,-0.451l-0.118,-0.452l-0.117,-0.452l-0.116,-0.452l-0.115,-0.454l-0.113,-0.453l-0.112,-0.455l-0.11,-0.455l-0.109,-0.455l-0.108,-0.456l-0.106,-0.456l-0.105,-0.457l-0.103,-0.458l-0.102,-0.458l-0.101,-0.458l-0.099,-0.459l-0.098,-0.46l-0.097,-0.46l-0.095,-0.461l-0.093,-0.461l-0.093,-0.461l-0.091,-0.462l-0.089,-0.463l-0.088,-0.463l-0.087,-0.464l-0.085,-0.464l-0.084,-0.464l-0.082,-0.466l-0.081,-0.465l-0.08,-0.466l-0.078,-0.467l-0.077,-0.467l-0.075,-0.467l-0.074,-0.468l-0.072,-0.469l-0.071,-0.468l-0.07,-0.47l-0.068,-0.47l-0.067,-0.47l-0.065,-0.471l-0.063,-0.471l-0.063,-0.472l-0.061,-0.472l-0.059,-0.472l-0.058,-0.473l-0.056,-0.474l-0.055,-0.474l-0.054,-0.474l-0.052,-0.475l-0.051,-0.475l-0.049,-0.476l-0.047,-0.476l-0.047,-0.477l-0.044,-0.477l-0.044,-0.477l-0.041,-0.478l-0.041,-0.478l-0.038,-0.479l-0.038,-0.479l-0.035,-0.479l-0.035,-0.48l-0.032,-0.481l-0.032,-0.48l-0.029,-0.481l-0.029,-0.482l-0.026,-0.482l-0.026,-0.482l-0.023,-0.483l-0.023,-0.483l-0.02,-0.484l-0.02,-0.484l-0.017,-0.484l-0.016,-0.485l-0.015,-0.485l-0.013,-0.485l-0.012,-0.486l-0.01,-0.486l-0.008,-0.487l-0.007,-0.487l-0.005,-0.487l-0.004,-0.488l-0.003,-0.488l0,-0.488l0,-0.488l0.003,-0.488l0.004,-0.488l0.005,-0.487l0.007,-0.487l0.008,-0.487l0.01,-0.486l0.012,-0.486l0.013,-0.485l0.015,-0.485l0.016,-0.485l0.017,-0.484l0.02,-0.484l0.02,-0.484l0.023,-0.483l0.023,-0.483l0.026,-0.482l0.026,-0.482l0.029,-0.482l0.029,-0.481l0.032,-0.48l0.032,-0.481l0.035,-0.48l0.035,-0.479l0.038,-0.479l0.038,-0.479l0.041,-0.478l0.041,-0.478l0.044,-0.477l0.044,-0.477l0.047,-0.477l0.047,-0.476l0.049,-0.476l0.051,-0.475l0.052,-0.475l0.054,-0.474l0.055,-0.474l0.056,-0.474l0.058,-0.473l0.059,-0.472l0.061,-0.472l0.063,-0.472l0.063,-0.471l0.065,-0.471l0.067,-0.47l0.068,-0.47l0.07,-0.47l0.071,-0.468l0.072,-0.469l0.074,-0.468l0.075,-0.467l0.077,-0.467l0.078,-0.467l0.08,-0.466l0.081,-0.465l0.082,-0.466l0.084,-0.464l0.085,-0.464l0.087,-0.464l0.088,-0.463l0.089,-0.463l0.091,-0.462l0.093,-0.461l0.093,-0.461l0.095,-0.461l0.097,-0.46l0.098,-0.46l0.099,-0.459l0.101,-0.458l0.102,-0.458l0.103,-0.458l0.105,-0.457l0.106,-0.456l0.108,-0.456l0.109,-0.455l0.11,-0.455l0.112,-0.455l0.113,-0.453l0.115,-0.454l0.116,-0.452l0.117,-0.452l0.118,-0.452l0.12,-0.451l0.121,-0.45l0.123,-0.45l0.124,-0.45l0.125,-0.449l0.127,-0.448l0.128,-0.448l0.129,-0.447l0.131,-0.446l0.132,-0.446l0.134,-0.446l0.134,-0.445l0.136,-0.444l0.138,-0.444l0.138,-0.443l0.14,-0.442l0.142,-0.442l0.142,-0.441l0.144,-0.441l0.146,-0.44l0.146,-0.44l0.148,-0.439l0.149,-0.438l0.151,-0.438l0.152,-0.437l0.153,-0.437l0.154,-0.436l0.156,-0.435l0.157,-0.435l0.158,-0.434l0.16,-0.433l0.161,-0.433l0.162,-0.432l0.164,-0.432l0.164,-0.431l0.166,-0.43l0.168,-0.43l0.168,-0.429l0.17,-0.429l0.171,-0.427l0.173,-0.427l0.173,-0.427l0.175,-0.426l0.176,-0.425l0.178,-0.425l0.178,-0.424l0.18,-0.423l0.181,-0.422l0.183,-0.422l0.183,-0.422l0.185,-0.42l0.186,-0.42l0.188,-0.419l0.188,-0.419l0.19,-0.418l0.191,-0.417l0.193,-0.417l0.193,-0.416l0.195,-0.415l0.196,-0.414l0.197,-0.414l0.198,-0.413l0.2,-0.413l0.201,-0.411l0.202,-0.411l0.203,-0.411l0.205,-0.409l0.205,-0.409l0.207,-0.408l0.208,-0.408l0.21,-0.407l0.21,-0.406l0.212,-0.405l0.212,-0.405l0.215,-0.404l0.215,-0.403l0.216,-0.402l0.218,-0.402l0.218,-0.401l0.22,-0.4l0.221,-0.4l0.223,-0.399l0.223,-0.398l0.225,-0.397l0.225,-0.397l0.227,-0.396l0.228,-0.395l0.23,-0.394l0.23,-0.393l0.232,-0.393l0.232,-0.392l0.234,-0.392l0.235,-0.39l0.236,-0.39l0.238,-0.389l0.238,-0.388l0.239,-0.388l0.241,-0.386l0.242,-0.386l0.243,-0.385l0.244,-0.385l0.245,-0.383l0.246,-0.383l0.248,-0.382l0.248,-0.381l0.25,-0.38l0.251,-0.38l0.252,-0.379l0.253,-0.378l0.254,-0.377l0.255,-0.376l0.256,-0.376l0.258,-0.375l0.258,-0.374l0.26,-0.373l0.26,-0.372l0.262,-0.372l0.263,-0.37l0.264,-0.37l0.265,-0.369l0.266,-0.369l0.267,-0.367l0.269,-0.366l0.269,-0.366l0.27,-0.365l0.272,-0.364l0.272,-0.363l0.274,-0.363l0.274,-0.361l0.276,-0.361l0.277,-0.359l0.278,-0.359l0.279,-0.358l0.28,-0.358l0.281,-0.356l0.282,-0.356l0.283,-0.354l0.284,-0.354l0.285,-0.353l0.286,-0.352l0.287,-0.351l0.289,-0.35l0.289,-0.35l0.29,-0.348l0.291,-0.348l0.293,-0.346l0.293,-0.346l0.294,-0.345l0.296,-0.344l0.296,-0.343l0.298,-0.343l0.298,-0.341l0.299,-0.341l0.301,-0.339l0.301,-0.339l0.303,-0.338l0.303,-0.336l0.305,-0.336l0.305,-0.335l0.306,-0.334l0.308,-0.333l0.308,-0.333l0.31,-0.331l0.31,-0.33l0.311,-0.33l0.312,-0.328l0.314,-0.328l0.314,-0.326l0.315,-0.326l0.316,-0.325l0.317,-0.324l0.318,-0.323l0.32,-0.322l0.32,-0.32l0.32,-0.32l0.322,-0.32l0.323,-0.318l0.324,-0.317l0.325,-0.316l0.326,-0.315l0.326,-0.314l0.328,-0.314l0.328,-0.312l0.33,-0.311l0.33,-0.31l0.331,-0.31l0.333,-0.308l0.333,-0.308l0.334,-0.306l0.335,-0.305l0.336,-0.305l0.336,-0.303l0.338,-0.303l0.339,-0.301l0.339,-0.301l0.341,-0.299l0.341,-0.298l0.343,-0.298l0.343,-0.296l0.344,-0.296l0.345,-0.294l0.346,-0.293l0.346,-0.293l0.348,-0.291l0.348,-0.29l0.35,-0.289l0.35,-0.289l0.351,-0.287l0.352,-0.286l0.353,-0.285l0.354,-0.284l0.354,-0.283l0.356,-0.282l0.356,-0.281l0.358,-0.28l0.358,-0.279l0.359,-0.278l0.359,-0.277l0.361,-0.276l0.361,-0.274l0.363,-0.274l0.363,-0.272l0.364,-0.272l0.365,-0.27l0.366,-0.269l0.366,-0.269l0.367,-0.267l0.369,-0.266l0.369,-0.265l0.37,-0.264l0.37,-0.263l0.372,-0.262l0.372,-0.26l0.373,-0.26l0.374,-0.258l0.375,-0.258l0.376,-0.256l0.376,-0.255l0.377,-0.254l0.378,-0.253l0.379,-0.252l0.38,-0.251l0.38,-0.25l0.381,-0.248l0.382,-0.248l0.383,-0.246l0.383,-0.245l0.385,-0.244l0.385,-0.243l0.386,-0.242l0.386,-0.241l0.388,-0.239l0.388,-0.238l0.389,-0.238l0.39,-0.236l0.39,-0.235l0.392,-0.234l0.392,-0.232l0.393,-0.232l0.393,-0.23l0.394,-0.23l0.395,-0.228l0.396,-0.227l0.397,-0.225l0.397,-0.225l0.398,-0.223l0.399,-0.223l0.4,-0.221l0.4,-0.22l0.401,-0.218l0.402,-0.218l0.402,-0.216l0.403,-0.215l0.404,-0.215l0.405,-0.212l0.405,-0.212l0.406,-0.21l0.407,-0.21l0.408,-0.208l0.408,-0.207l0.409,-0.205l0.409,-0.205l0.411,-0.203l0.411,-0.202l0.411,-0.201l0.413,-0.2l0.413,-0.198l0.414,-0.197l0.414,-0.196l0.415,-0.195l0.416,-0.193l0.417,-0.193l0.417,-0.191l0.418,-0.19l0.419,-0.188l0.419,-0.188l0.42,-0.186l0.42,-0.185l0.422,-0.183l0.422,-0.183l0.422,-0.181l0.423,-0.18l0.424,-0.178l0.425,-0.178l0.425,-0.176l0.426,-0.175l0.427,-0.173l0.427,-0.173l0.427,-0.171l0.429,-0.17l0.429,-0.168l0.43,-0.168l0.43,-0.166l0.431,-0.164l0.432,-0.164l0.432,-0.162l0.433,-0.161l0.433,-0.16l0.434,-0.158l0.435,-0.157l0.435,-0.156l0.436,-0.154l0.437,-0.153l0.437,-0.152l0.438,-0.151l0.438,-0.149l0.439,-0.148l0.44,-0.146l0.44,-0.146l0.441,-0.144l0.441,-0.142l0.442,-0.142l0.442,-0.14l0.443,-0.138l0.444,-0.138l0.444,-0.136l0.445,-0.134l0.446,-0.134l0.446,-0.132l0.446,-0.131l0.447,-0.129l0.448,-0.128l0.448,-0.127l0.449,-0.125l0.45,-0.124l0.45,-0.123l0.45,-0.121l0.451,-0.12l0.452,-0.118l0.452,-0.117l0.452,-0.116l0.454,-0.115l0.453,-0.113l0.455,-0.112l0.455,-0.11l0.455,-0.109l0.456,-0.108l0.456,-0.106l0.457,-0.105l0.458,-0.103l0.458,-0.102l0.458,-0.101l0.459,-0.099l0.46,-0.098l0.46,-0.097l0.461,-0.095l0.461,-0.093l0.461,-0.093l0.462,-0.091l0.463,-0.089l0.463,-0.088l0.464,-0.087l0.464,-0.085l0.464,-0.084l0.466,-0.082l0.465,-0.081l0.466,-0.08l0.467,-0.078l0.467,-0.077l0.467,-0.075l0.468,-0.074l0.469,-0.072l0.468,-0.071l0.47,-0.07l0.47,-0.068l0.47,-0.067l0.471,-0.065l0.471,-0.063l0.472,-0.063l0.472,-0.061l0.472,-0.059l0.473,-0.058l0.474,-0.056l0.474,-0.055l0.474,-0.054l0.475,-0.052l0.475,-0.051l0.476,-0.049l0.476,-0.047l0.477,-0.047l0.477,-0.044l0.477,-0.044l0.478,-0.041l0.478,-0.041l0.479,-0.038l0.479,-0.038l0.479,-0.035l0.48,-0.035l0.481,-0.032l0.48,-0.032l0.481,-0.029l0.482,-0.029l0.482,-0.026l0.482,-0.026l0.483,-0.023l0.483,-0.023l0.484,-0.02l0.484,-0.02l0.484,-0.017l0.485,-0.016l0.485,-0.015l0.485,-0.013l0.486,-0.012l0.486,-0.01l0.487,-0.008l0.487,-0.007l0.487,-0.005l0.488,-0.004l0.488,-0.003l0.488,0l0.488,0Zm-0.945,10l-0.456,0.002l-0.456,0.004l-0.456,0.005l-0.455,0.007l-0.455,0.008l-0.454,0.009l-0.454,0.011l-0.454,0.012l-0.453,0.014l-0.453,0.015l-0.453,0.016l-0.452,0.018l-0.452,0.02l-0.452,0.02l-0.451,0.022l-0.451,0.024l-0.45,0.025l-0.45,0.026l-0.449,0.028l-0.449,0.03l-0.449,0.03l-0.449,0.032l-0.447,0.034l-0.448,0.034l-0.447,0.037l-0.447,0.037l-0.446,0.039l-0.446,0.041l-0.446,0.041l-0.445,0.043l-0.444,0.045l-0.445,0.046l-0.444,0.047l-0.443,0.049l-0.443,0.05l-0.443,0.051l-0.442,0.053l-0.441,0.054l-0.442,0.055l-0.441,0.057l-0.44,0.058l-0.44,0.06l-0.439,0.061l-0.44,0.062l-0.438,0.064l-0.438,0.064l-0.438,0.067l-0.438,0.067l-0.436,0.069l-0.437,0.071l-0.436,0.071l-0.435,0.073l-0.435,0.074l-0.435,0.076l-0.434,0.077l-0.434,0.078l-0.433,0.08l-0.433,0.081l-0.432,0.082l-0.432,0.083l-0.431,0.085l-0.431,0.086l-0.43,0.088l-0.43,0.089l-0.43,0.09l-0.429,0.091l-0.428,0.093l-0.428,0.094l-0.428,0.095l-0.427,0.097l-0.426,0.097l-0.426,0.1l-0.426,0.1l-0.425,0.102l-0.424,0.103l-0.424,0.104l-0.424,0.106l-0.423,0.106l-0.422,0.109l-0.422,0.109l-0.422,0.111l-0.42,0.111l-0.421,0.114l-0.42,0.114l-0.419,0.116l-0.419,0.117l-0.419,0.118l-0.417,0.119l-0.418,0.121l-0.416,0.122l-0.417,0.123l-0.415,0.125l-0.415,0.126l-0.415,0.127l-0.414,0.128l-0.414,0.129l-0.413,0.131l-0.412,0.132l-0.412,0.133l-0.411,0.134l-0.411,0.136l-0.41,0.137l-0.41,0.138l-0.409,0.139l-0.409,0.141l-0.408,0.141l-0.407,0.143l-0.407,0.144l-0.406,0.146l-0.406,0.146l-0.405,0.148l-0.405,0.149l-0.404,0.15l-0.403,0.151l-0.403,0.153l-0.402,0.154l-0.402,0.155l-0.401,0.156l-0.4,0.157l-0.4,0.159l-0.399,0.159l-0.399,0.161l-0.398,0.162l-0.398,0.164l-0.397,0.164l-0.396,0.166l-0.396,0.166l-0.395,0.168l-0.394,0.169l-0.394,0.171l-0.393,0.171l-0.393,0.173l-0.392,0.173l-0.391,0.175l-0.391,0.176l-0.39,0.178l-0.39,0.178l-0.388,0.179l-0.389,0.181l-0.387,0.182l-0.387,0.183l-0.386,0.184l-0.386,0.185l-0.385,0.186l-0.385,0.188l-0.383,0.189l-0.383,0.189l-0.383,0.191l-0.381,0.192l-0.382,0.193l-0.38,0.195l-0.38,0.195l-0.379,0.196l-0.378,0.198l-0.378,0.199l-0.377,0.2l-0.377,0.201l-0.375,0.202l-0.376,0.203l-0.374,0.204l-0.374,0.205l-0.373,0.207l-0.372,0.207l-0.372,0.209l-0.371,0.21l-0.37,0.21l-0.37,0.212l-0.369,0.213l-0.368,0.214l-0.368,0.216l-0.366,0.216l-0.366,0.217l-0.366,0.218l-0.364,0.22l-0.365,0.22l-0.363,0.222l-0.362,0.223l-0.362,0.223l-0.361,0.225l-0.361,0.226l-0.359,0.227l-0.359,0.228l-0.359,0.229l-0.357,0.23l-0.357,0.231l-0.356,0.232l-0.355,0.233l-0.355,0.234l-0.353,0.236l-0.353,0.236l-0.353,0.237l-0.351,0.238l-0.351,0.24l-0.35,0.24l-0.349,0.242l-0.349,0.242l-0.348,0.244l-0.347,0.244l-0.346,0.246l-0.345,0.246l-0.345,0.248l-0.344,0.248l-0.343,0.25l-0.343,0.251l-0.341,0.251l-0.341,0.253l-0.34,0.253l-0.339,0.255l-0.339,0.255l-0.337,0.257l-0.337,0.257l-0.336,0.259l-0.336,0.26l-0.334,0.26l-0.334,0.262l-0.333,0.262l-0.332,0.264l-0.331,0.264l-0.331,0.265l-0.329,0.267l-0.329,0.267l-0.328,0.268l-0.327,0.27l-0.327,0.27l-0.326,0.271l-0.324,0.272l-0.324,0.273l-0.323,0.274l-0.323,0.275l-0.321,0.276l-0.321,0.277l-0.319,0.278l-0.319,0.279l-0.318,0.28l-0.318,0.28l-0.316,0.282l-0.316,0.283l-0.314,0.283l-0.314,0.284l-0.313,0.286l-0.312,0.286l-0.311,0.287l-0.311,0.288l-0.309,0.289l-0.309,0.29l-0.308,0.291l-0.307,0.292l-0.306,0.293l-0.305,0.293l-0.304,0.295l-0.304,0.295l-0.302,0.296l-0.302,0.298l-0.3,0.298l-0.3,0.299l-0.299,0.3l-0.298,0.3l-0.298,0.302l-0.296,0.302l-0.295,0.304l-0.295,0.304l-0.293,0.305l-0.293,0.306l-0.292,0.307l-0.291,0.308l-0.29,0.309l-0.289,0.309l-0.288,0.311l-0.287,0.311l-0.286,0.312l-0.286,0.313l-0.284,0.314l-0.283,0.314l-0.283,0.316l-0.282,0.316l-0.28,0.318l-0.28,0.318l-0.279,0.319l-0.278,0.319l-0.277,0.321l-0.276,0.321l-0.275,0.323l-0.274,0.323l-0.273,0.324l-0.272,0.324l-0.271,0.326l-0.27,0.327l-0.27,0.327l-0.268,0.328l-0.267,0.329l-0.267,0.329l-0.265,0.331l-0.264,0.331l-0.264,0.332l-0.262,0.333l-0.262,0.334l-0.26,0.334l-0.26,0.336l-0.259,0.336l-0.257,0.337l-0.257,0.337l-0.255,0.339l-0.255,0.339l-0.253,0.34l-0.253,0.341l-0.251,0.341l-0.251,0.343l-0.25,0.343l-0.248,0.344l-0.248,0.345l-0.246,0.345l-0.246,0.346l-0.244,0.347l-0.244,0.348l-0.242,0.349l-0.242,0.349l-0.24,0.35l-0.24,0.351l-0.238,0.351l-0.237,0.353l-0.236,0.353l-0.236,0.353l-0.234,0.355l-0.233,0.355l-0.232,0.356l-0.231,0.357l-0.23,0.357l-0.229,0.359l-0.228,0.359l-0.227,0.359l-0.226,0.361l-0.225,0.361l-0.223,0.362l-0.223,0.362l-0.222,0.363l-0.22,0.365l-0.22,0.364l-0.218,0.366l-0.217,0.366l-0.216,0.366l-0.216,0.368l-0.214,0.368l-0.213,0.369l-0.212,0.37l-0.21,0.37l-0.21,0.371l-0.209,0.372l-0.207,0.372l-0.207,0.373l-0.205,0.374l-0.204,0.374l-0.203,0.376l-0.202,0.375l-0.201,0.377l-0.2,0.377l-0.199,0.378l-0.198,0.378l-0.196,0.379l-0.195,0.38l-0.195,0.38l-0.193,0.382l-0.192,0.381l-0.191,0.383l-0.189,0.383l-0.189,0.383l-0.188,0.385l-0.186,0.385l-0.185,0.386l-0.184,0.386l-0.183,0.387l-0.182,0.387l-0.181,0.389l-0.179,0.388l-0.178,0.39l-0.178,0.39l-0.176,0.391l-0.175,0.391l-0.173,0.392l-0.173,0.393l-0.171,0.393l-0.171,0.394l-0.169,0.394l-0.168,0.395l-0.166,0.396l-0.166,0.396l-0.164,0.397l-0.164,0.398l-0.162,0.398l-0.161,0.399l-0.159,0.399l-0.159,0.4l-0.157,0.4l-0.156,0.401l-0.155,0.402l-0.154,0.402l-0.153,0.403l-0.151,0.403l-0.15,0.404l-0.149,0.405l-0.148,0.405l-0.146,0.406l-0.146,0.406l-0.144,0.407l-0.143,0.407l-0.141,0.408l-0.141,0.409l-0.139,0.409l-0.138,0.41l-0.137,0.41l-0.136,0.411l-0.134,0.411l-0.133,0.412l-0.132,0.412l-0.131,0.413l-0.129,0.414l-0.128,0.414l-0.127,0.415l-0.126,0.415l-0.125,0.415l-0.123,0.417l-0.122,0.416l-0.121,0.418l-0.119,0.417l-0.118,0.419l-0.117,0.419l-0.116,0.419l-0.114,0.42l-0.114,0.421l-0.111,0.42l-0.111,0.422l-0.109,0.422l-0.109,0.422l-0.106,0.423l-0.106,0.424l-0.104,0.424l-0.103,0.424l-0.102,0.425l-0.1,0.426l-0.1,0.426l-0.097,0.426l-0.097,0.427l-0.095,0.428l-0.094,0.428l-0.093,0.428l-0.091,0.429l-0.09,0.43l-0.089,0.43l-0.088,0.43l-0.086,0.431l-0.085,0.431l-0.083,0.432l-0.082,0.432l-0.081,0.433l-0.08,0.433l-0.078,0.434l-0.077,0.434l-0.076,0.435l-0.074,0.435l-0.073,0.435l-0.071,0.436l-0.071,0.437l-0.069,0.436l-0.067,0.438l-0.067,0.438l-0.064,0.438l-0.064,0.438l-0.062,0.44l-0.061,0.439l-0.06,0.44l-0.058,0.44l-0.057,0.441l-0.055,0.442l-0.054,0.441l-0.053,0.442l-0.051,0.443l-0.05,0.443l-0.049,0.443l-0.047,0.444l-0.046,0.445l-0.045,0.444l-0.043,0.445l-0.041,0.446l-0.041,0.446l-0.039,0.446l-0.037,0.447l-0.037,0.447l-0.034,0.448l-0.034,0.447l-0.032,0.449l-0.03,0.449l-0.03,0.449l-0.028,0.449l-0.026,0.45l-0.025,0.45l-0.024,0.451l-0.022,0.451l-0.02,0.452l-0.02,0.452l-0.018,0.452l-0.016,0.453l-0.015,0.453l-0.014,0.453l-0.012,0.454l-0.011,0.454l-0.009,0.454l-0.008,0.455l-0.007,0.455l-0.005,0.456l-0.004,0.456l-0.002,0.456l0,0.457l0,0.457l0.002,0.456l0.004,0.456l0.005,0.456l0.007,0.455l0.008,0.455l0.009,0.454l0.011,0.454l0.012,0.454l0.014,0.453l0.015,0.453l0.016,0.453l0.018,0.452l0.02,0.452l0.02,0.452l0.022,0.451l0.024,0.451l0.025,0.45l0.026,0.45l0.028,0.449l0.03,0.449l0.03,0.449l0.032,0.449l0.034,0.447l0.034,0.448l0.037,0.447l0.037,0.447l0.039,0.446l0.041,0.446l0.041,0.446l0.043,0.445l0.045,0.444l0.046,0.445l0.047,0.444l0.049,0.443l0.05,0.443l0.051,0.443l0.053,0.442l0.054,0.441l0.055,0.442l0.057,0.441l0.058,0.44l0.06,0.44l0.061,0.439l0.062,0.44l0.064,0.438l0.064,0.438l0.067,0.438l0.067,0.438l0.069,0.437l0.071,0.436l0.071,0.436l0.073,0.435l0.074,0.435l0.076,0.435l0.077,0.434l0.078,0.434l0.08,0.433l0.081,0.433l0.082,0.432l0.083,0.432l0.085,0.431l0.086,0.431l0.088,0.43l0.089,0.43l0.09,0.43l0.091,0.429l0.093,0.428l0.094,0.428l0.095,0.428l0.097,0.427l0.097,0.426l0.1,0.426l0.1,0.426l0.102,0.425l0.103,0.424l0.104,0.424l0.106,0.424l0.106,0.423l0.108,0.422l0.11,0.422l0.111,0.422l0.111,0.421l0.114,0.42l0.114,0.42l0.116,0.419l0.117,0.419l0.118,0.419l0.119,0.417l0.121,0.418l0.122,0.416l0.123,0.417l0.125,0.415l0.126,0.415l0.127,0.415l0.128,0.414l0.129,0.414l0.131,0.413l0.132,0.412l0.133,0.412l0.134,0.411l0.136,0.411l0.137,0.41l0.138,0.41l0.139,0.409l0.141,0.409l0.141,0.408l0.143,0.407l0.144,0.407l0.146,0.406l0.146,0.406l0.148,0.405l0.149,0.405l0.15,0.404l0.151,0.403l0.153,0.403l0.154,0.402l0.155,0.402l0.156,0.401l0.157,0.4l0.159,0.4l0.159,0.399l0.161,0.399l0.162,0.398l0.164,0.398l0.164,0.397l0.166,0.396l0.166,0.396l0.168,0.395l0.169,0.394l0.171,0.394l0.171,0.393l0.173,0.393l0.173,0.392l0.175,0.391l0.176,0.391l0.178,0.39l0.178,0.389l0.179,0.389l0.181,0.389l0.182,0.387l0.183,0.387l0.184,0.386l0.185,0.386l0.186,0.385l0.188,0.384l0.189,0.384l0.189,0.383l0.191,0.383l0.192,0.381l0.193,0.382l0.195,0.38l0.195,0.38l0.196,0.379l0.198,0.378l0.199,0.378l0.2,0.377l0.2,0.377l0.203,0.376l0.203,0.375l0.204,0.374l0.205,0.374l0.207,0.373l0.207,0.372l0.209,0.372l0.21,0.371l0.21,0.37l0.212,0.37l0.213,0.369l0.214,0.368l0.216,0.368l0.216,0.366l0.217,0.366l0.218,0.366l0.22,0.365l0.22,0.364l0.222,0.363l0.223,0.362l0.223,0.362l0.225,0.361l0.226,0.361l0.227,0.359l0.228,0.359l0.229,0.358l0.23,0.358l0.231,0.357l0.232,0.356l0.233,0.355l0.234,0.355l0.236,0.353l0.236,0.353l0.237,0.353l0.238,0.351l0.24,0.351l0.24,0.35l0.242,0.349l0.242,0.349l0.244,0.348l0.244,0.347l0.246,0.346l0.246,0.345l0.248,0.345l0.248,0.344l0.25,0.343l0.25,0.342l0.252,0.342l0.253,0.341l0.253,0.34l0.255,0.339l0.255,0.339l0.257,0.337l0.257,0.337l0.259,0.336l0.26,0.336l0.26,0.334l0.262,0.334l0.262,0.333l0.263,0.332l0.265,0.331l0.265,0.331l0.267,0.329l0.267,0.329l0.268,0.328l0.27,0.328l0.27,0.326l0.271,0.325l0.272,0.325l0.273,0.324l0.274,0.323l0.276,0.323l0.275,0.321l0.277,0.321l0.278,0.319l0.279,0.319l0.28,0.318l0.281,0.318l0.281,0.316l0.282,0.315l0.284,0.315l0.284,0.314l0.286,0.313l0.286,0.312l0.287,0.311l0.288,0.311l0.289,0.309l0.29,0.309l0.291,0.308l0.292,0.307l0.293,0.306l0.293,0.305l0.295,0.304l0.295,0.303l0.296,0.303l0.298,0.302l0.298,0.3l0.299,0.3l0.299,0.299l0.301,0.298l0.302,0.298l0.302,0.296l0.304,0.295l0.304,0.295l0.305,0.293l0.306,0.293l0.307,0.292l0.308,0.291l0.309,0.29l0.309,0.289l0.311,0.288l0.311,0.287l0.312,0.286l0.313,0.286l0.314,0.284l0.314,0.283l0.316,0.283l0.317,0.282l0.317,0.28l0.318,0.28l0.319,0.279l0.319,0.278l0.321,0.277l0.322,0.276l0.322,0.274l0.323,0.275l0.324,0.273l0.324,0.272l0.326,0.271l0.326,0.27l0.328,0.27l0.328,0.268l0.328,0.267l0.33,0.267l0.331,0.265l0.331,0.264l0.332,0.264l0.333,0.262l0.334,0.262l0.334,0.26l0.336,0.26l0.336,0.259l0.336,0.257l0.338,0.257l0.339,0.255l0.339,0.255l0.34,0.253l0.341,0.253l0.341,0.251l0.343,0.251l0.343,0.25l0.344,0.248l0.345,0.248l0.345,0.246l0.346,0.246l0.348,0.244l0.347,0.244l0.349,0.242l0.349,0.242l0.35,0.24l0.351,0.24l0.352,0.238l0.352,0.237l0.353,0.236l0.353,0.236l0.355,0.234l0.355,0.233l0.356,0.232l0.357,0.231l0.357,0.23l0.359,0.229l0.359,0.228l0.359,0.227l0.361,0.226l0.361,0.225l0.362,0.223l0.362,0.223l0.363,0.222l0.364,0.22l0.365,0.22l0.366,0.218l0.366,0.217l0.366,0.216l0.368,0.216l0.368,0.214l0.369,0.213l0.37,0.211l0.37,0.211l0.371,0.21l0.372,0.209l0.372,0.207l0.373,0.207l0.374,0.205l0.374,0.204l0.376,0.203l0.375,0.203l0.377,0.2l0.377,0.2l0.378,0.199l0.378,0.197l0.379,0.197l0.38,0.195l0.381,0.195l0.381,0.193l0.381,0.192l0.383,0.191l0.383,0.189l0.384,0.189l0.384,0.188l0.385,0.186l0.386,0.185l0.386,0.184l0.387,0.183l0.387,0.182l0.389,0.181l0.388,0.179l0.39,0.178l0.39,0.178l0.391,0.176l0.391,0.175l0.392,0.173l0.393,0.173l0.393,0.172l0.394,0.17l0.394,0.169l0.395,0.168l0.396,0.167l0.396,0.165l0.397,0.164l0.398,0.164l0.398,0.162l0.399,0.161l0.399,0.159l0.4,0.159l0.4,0.157l0.401,0.156l0.402,0.155l0.402,0.154l0.403,0.153l0.403,0.151l0.404,0.15l0.405,0.149l0.405,0.148l0.406,0.146l0.406,0.146l0.407,0.144l0.407,0.143l0.408,0.141l0.409,0.141l0.409,0.139l0.41,0.138l0.41,0.137l0.411,0.136l0.411,0.134l0.412,0.133l0.412,0.132l0.414,0.131l0.413,0.129l0.414,0.128l0.415,0.127l0.415,0.126l0.416,0.125l0.416,0.123l0.416,0.122l0.418,0.121l0.417,0.119l0.419,0.118l0.419,0.117l0.419,0.116l0.42,0.114l0.42,0.114l0.421,0.111l0.422,0.111l0.422,0.109l0.422,0.109l0.423,0.106l0.424,0.106l0.424,0.104l0.424,0.103l0.425,0.102l0.426,0.1l0.426,0.1l0.426,0.097l0.427,0.097l0.428,0.095l0.428,0.094l0.428,0.093l0.429,0.091l0.43,0.09l0.43,0.089l0.43,0.088l0.431,0.086l0.431,0.085l0.432,0.083l0.432,0.082l0.433,0.081l0.433,0.08l0.434,0.078l0.434,0.077l0.434,0.076l0.436,0.074l0.435,0.073l0.436,0.071l0.437,0.071l0.436,0.069l0.438,0.067l0.438,0.067l0.438,0.064l0.438,0.064l0.439,0.062l0.44,0.061l0.44,0.06l0.441,0.058l0.44,0.057l0.441,0.055l0.442,0.054l0.443,0.053l0.442,0.051l0.443,0.05l0.443,0.049l0.444,0.047l0.444,0.046l0.445,0.045l0.445,0.043l0.446,0.041l0.446,0.041l0.446,0.039l0.447,0.037l0.447,0.037l0.447,0.034l0.448,0.034l0.449,0.032l0.449,0.03l0.449,0.03l0.449,0.028l0.45,0.026l0.45,0.025l0.451,0.024l0.451,0.022l0.452,0.02l0.452,0.02l0.452,0.018l0.453,0.016l0.453,0.015l0.453,0.014l0.454,0.012l0.454,0.011l0.454,0.009l0.455,0.008l0.455,0.007l0.456,0.005l0.456,0.004l0.456,0.002l0.457,0l0.457,0l0.456,-0.002l0.456,-0.004l0.456,-0.005l0.455,-0.007l0.455,-0.008l0.454,-0.009l0.454,-0.011l0.454,-0.012l0.453,-0.014l0.453,-0.015l0.453,-0.016l0.452,-0.018l0.452,-0.02l0.452,-0.02l0.451,-0.022l0.451,-0.024l0.45,-0.025l0.45,-0.026l0.449,-0.028l0.449,-0.03l0.449,-0.03l0.449,-0.032l0.448,-0.034l0.447,-0.034l0.447,-0.037l0.447,-0.037l0.446,-0.039l0.446,-0.041l0.446,-0.041l0.445,-0.043l0.445,-0.045l0.444,-0.046l0.444,-0.047l0.443,-0.049l0.443,-0.05l0.443,-0.051l0.442,-0.053l0.442,-0.054l0.441,-0.055l0.44,-0.057l0.441,-0.058l0.44,-0.06l0.44,-0.061l0.439,-0.062l0.438,-0.064l0.438,-0.064l0.438,-0.067l0.438,-0.067l0.436,-0.069l0.437,-0.071l0.436,-0.071l0.435,-0.073l0.436,-0.074l0.434,-0.076l0.434,-0.077l0.434,-0.078l0.433,-0.08l0.433,-0.081l0.432,-0.082l0.432,-0.083l0.431,-0.085l0.431,-0.086l0.43,-0.088l0.43,-0.089l0.43,-0.09l0.429,-0.091l0.428,-0.093l0.429,-0.094l0.427,-0.095l0.427,-0.097l0.426,-0.097l0.426,-0.1l0.426,-0.1l0.425,-0.102l0.424,-0.103l0.424,-0.104l0.424,-0.106l0.423,-0.106l0.422,-0.109l0.422,-0.109l0.422,-0.111l0.421,-0.111l0.42,-0.114l0.42,-0.114l0.419,-0.116l0.419,-0.117l0.419,-0.118l0.417,-0.119l0.418,-0.121l0.416,-0.122l0.416,-0.123l0.416,-0.125l0.416,-0.126l0.414,-0.127l0.414,-0.128l0.413,-0.129l0.414,-0.131l0.412,-0.132l0.412,-0.133l0.411,-0.134l0.411,-0.136l0.41,-0.137l0.41,-0.138l0.409,-0.139l0.409,-0.141l0.408,-0.141l0.407,-0.143l0.407,-0.144l0.406,-0.146l0.406,-0.146l0.405,-0.148l0.405,-0.149l0.404,-0.15l0.403,-0.151l0.403,-0.153l0.402,-0.154l0.402,-0.155l0.401,-0.156l0.4,-0.157l0.4,-0.159l0.399,-0.159l0.399,-0.161l0.398,-0.162l0.398,-0.164l0.397,-0.164l0.396,-0.165l0.396,-0.167l0.395,-0.168l0.394,-0.169l0.394,-0.171l0.393,-0.171l0.393,-0.173l0.392,-0.173l0.391,-0.175l0.391,-0.176l0.39,-0.178l0.39,-0.178l0.388,-0.179l0.389,-0.181l0.387,-0.182l0.387,-0.183l0.386,-0.184l0.386,-0.185l0.385,-0.186l0.384,-0.188l0.384,-0.189l0.383,-0.189l0.383,-0.191l0.381,-0.192l0.381,-0.193l0.381,-0.195l0.38,-0.195l0.379,-0.197l0.378,-0.197l0.378,-0.199l0.377,-0.2l0.376,-0.2l0.377,-0.203l0.375,-0.203l0.374,-0.204l0.374,-0.205l0.373,-0.207l0.372,-0.207l0.372,-0.209l0.371,-0.21l0.37,-0.211l0.37,-0.211l0.369,-0.213l0.368,-0.214l0.368,-0.216l0.366,-0.216l0.366,-0.217l0.366,-0.218l0.365,-0.22l0.364,-0.22l0.363,-0.222l0.362,-0.223l0.362,-0.223l0.361,-0.225l0.361,-0.226l0.359,-0.227l0.359,-0.228l0.359,-0.229l0.357,-0.23l0.357,-0.231l0.356,-0.232l0.355,-0.233l0.355,-0.234l0.353,-0.236l0.353,-0.236l0.352,-0.237l0.352,-0.238l0.351,-0.24l0.35,-0.24l0.349,-0.242l0.349,-0.242l0.347,-0.244l0.348,-0.244l0.346,-0.246l0.345,-0.246l0.345,-0.248l0.344,-0.248l0.343,-0.25l0.343,-0.25l0.341,-0.252l0.341,-0.253l0.34,-0.253l0.339,-0.255l0.339,-0.255l0.337,-0.257l0.337,-0.257l0.336,-0.259l0.336,-0.26l0.334,-0.26l0.334,-0.262l0.333,-0.262l0.332,-0.264l0.331,-0.264l0.331,-0.265l0.329,-0.267l0.329,-0.267l0.328,-0.268l0.328,-0.27l0.326,-0.27l0.325,-0.271l0.325,-0.272l0.324,-0.273l0.323,-0.275l0.323,-0.274l0.321,-0.276l0.321,-0.277l0.319,-0.278l0.319,-0.279l0.318,-0.28l0.318,-0.28l0.316,-0.282l0.315,-0.283l0.315,-0.283l0.314,-0.284l0.313,-0.286l0.312,-0.286l0.311,-0.287l0.311,-0.288l0.309,-0.289l0.309,-0.29l0.308,-0.291l0.307,-0.292l0.306,-0.293l0.305,-0.293l0.304,-0.295l0.303,-0.295l0.303,-0.296l0.302,-0.298l0.3,-0.298l0.3,-0.299l0.299,-0.3l0.298,-0.3l0.298,-0.302l0.296,-0.303l0.295,-0.303l0.295,-0.304l0.293,-0.305l0.293,-0.306l0.292,-0.307l0.291,-0.308l0.29,-0.309l0.289,-0.309l0.288,-0.311l0.287,-0.311l0.286,-0.312l0.286,-0.313l0.284,-0.314l0.283,-0.315l0.283,-0.315l0.282,-0.316l0.28,-0.318l0.28,-0.318l0.279,-0.319l0.278,-0.319l0.277,-0.321l0.276,-0.321l0.274,-0.323l0.275,-0.323l0.273,-0.324l0.272,-0.325l0.271,-0.325l0.27,-0.326l0.27,-0.328l0.268,-0.328l0.267,-0.329l0.267,-0.329l0.265,-0.331l0.264,-0.331l0.264,-0.332l0.262,-0.333l0.262,-0.334l0.26,-0.334l0.26,-0.336l0.259,-0.336l0.257,-0.337l0.257,-0.337l0.255,-0.339l0.255,-0.339l0.253,-0.34l0.253,-0.341l0.252,-0.341l0.25,-0.343l0.25,-0.343l0.248,-0.344l0.248,-0.345l0.246,-0.345l0.246,-0.346l0.244,-0.348l0.244,-0.347l0.242,-0.349l0.242,-0.349l0.24,-0.35l0.24,-0.351l0.238,-0.352l0.237,-0.352l0.236,-0.353l0.236,-0.353l0.234,-0.355l0.233,-0.355l0.232,-0.356l0.231,-0.357l0.23,-0.357l0.229,-0.359l0.228,-0.359l0.227,-0.359l0.226,-0.361l0.225,-0.361l0.223,-0.362l0.223,-0.362l0.222,-0.363l0.22,-0.364l0.22,-0.365l0.218,-0.366l0.217,-0.366l0.216,-0.366l0.216,-0.368l0.214,-0.368l0.213,-0.369l0.211,-0.37l0.211,-0.37l0.21,-0.371l0.209,-0.372l0.207,-0.372l0.207,-0.373l0.205,-0.374l0.204,-0.374l0.203,-0.375l0.203,-0.377l0.2,-0.376l0.2,-0.377l0.199,-0.378l0.197,-0.378l0.197,-0.379l0.195,-0.38l0.195,-0.381l0.193,-0.381l0.192,-0.381l0.191,-0.383l0.189,-0.383l0.189,-0.384l0.188,-0.384l0.186,-0.385l0.185,-0.386l0.184,-0.386l0.183,-0.387l0.182,-0.387l0.181,-0.389l0.179,-0.388l0.178,-0.39l0.178,-0.39l0.176,-0.391l0.175,-0.391l0.173,-0.392l0.173,-0.393l0.171,-0.393l0.171,-0.394l0.169,-0.394l0.168,-0.395l0.167,-0.396l0.165,-0.396l0.164,-0.397l0.164,-0.398l0.162,-0.398l0.161,-0.399l0.159,-0.399l0.159,-0.4l0.157,-0.4l0.156,-0.401l0.155,-0.402l0.154,-0.402l0.153,-0.403l0.151,-0.403l0.15,-0.404l0.149,-0.405l0.148,-0.405l0.146,-0.406l0.146,-0.406l0.144,-0.407l0.143,-0.407l0.141,-0.408l0.141,-0.409l0.139,-0.409l0.138,-0.41l0.137,-0.41l0.136,-0.411l0.134,-0.411l0.133,-0.412l0.132,-0.412l0.131,-0.414l0.129,-0.413l0.128,-0.414l0.127,-0.414l0.126,-0.416l0.125,-0.416l0.123,-0.416l0.122,-0.416l0.121,-0.418l0.119,-0.417l0.118,-0.419l0.117,-0.419l0.116,-0.419l0.114,-0.42l0.114,-0.42l0.111,-0.421l0.111,-0.422l0.109,-0.422l0.109,-0.422l0.106,-0.423l0.106,-0.424l0.104,-0.424l0.103,-0.424l0.102,-0.425l0.1,-0.426l0.1,-0.426l0.097,-0.426l0.097,-0.427l0.095,-0.427l0.094,-0.429l0.093,-0.428l0.091,-0.429l0.09,-0.43l0.089,-0.43l0.088,-0.43l0.086,-0.431l0.085,-0.431l0.083,-0.432l0.082,-0.432l0.081,-0.433l0.08,-0.433l0.078,-0.434l0.077,-0.434l0.076,-0.434l0.074,-0.436l0.073,-0.435l0.071,-0.436l0.071,-0.437l0.069,-0.436l0.067,-0.438l0.067,-0.438l0.064,-0.438l0.064,-0.438l0.062,-0.439l0.061,-0.44l0.06,-0.44l0.058,-0.441l0.057,-0.44l0.055,-0.441l0.054,-0.442l0.053,-0.442l0.051,-0.443l0.05,-0.443l0.049,-0.443l0.047,-0.444l0.046,-0.444l0.045,-0.445l0.043,-0.445l0.041,-0.446l0.041,-0.446l0.039,-0.446l0.037,-0.447l0.037,-0.447l0.034,-0.447l0.034,-0.448l0.032,-0.449l0.03,-0.449l0.03,-0.449l0.028,-0.449l0.026,-0.45l0.025,-0.45l0.024,-0.451l0.022,-0.451l0.02,-0.452l0.02,-0.452l0.018,-0.452l0.016,-0.453l0.015,-0.453l0.014,-0.453l0.012,-0.454l0.011,-0.454l0.009,-0.454l0.008,-0.455l0.007,-0.455l0.005,-0.456l0.004,-0.456l0.002,-0.456l0,-0.457l0,-0.457l-0.002,-0.456l-0.004,-0.456l-0.005,-0.456l-0.007,-0.455l-0.008,-0.455l-0.009,-0.454l-0.011,-0.454l-0.012,-0.454l-0.014,-0.453l-0.015,-0.453l-0.016,-0.453l-0.018,-0.452l-0.02,-0.452l-0.02,-0.452l-0.022,-0.451l-0.024,-0.451l-0.025,-0.45l-0.026,-0.45l-0.028,-0.449l-0.03,-0.449l-0.03,-0.449l-0.032,-0.449l-0.034,-0.448l-0.034,-0.447l-0.037,-0.447l-0.037,-0.447l-0.039,-0.446l-0.041,-0.446l-0.041,-0.446l-0.043,-0.445l-0.045,-0.445l-0.046,-0.444l-0.047,-0.444l-0.049,-0.443l-0.05,-0.443l-0.051,-0.442l-0.053,-0.443l-0.054,-0.442l-0.055,-0.441l-0.057,-0.44l-0.058,-0.441l-0.06,-0.44l-0.061,-0.44l-0.062,-0.439l-0.064,-0.438l-0.064,-0.438l-0.067,-0.438l-0.067,-0.438l-0.069,-0.436l-0.071,-0.437l-0.071,-0.436l-0.073,-0.435l-0.074,-0.436l-0.076,-0.434l-0.077,-0.434l-0.078,-0.434l-0.08,-0.433l-0.081,-0.433l-0.082,-0.432l-0.083,-0.432l-0.085,-0.431l-0.086,-0.431l-0.088,-0.43l-0.089,-0.43l-0.09,-0.43l-0.091,-0.429l-0.093,-0.428l-0.094,-0.428l-0.095,-0.428l-0.097,-0.427l-0.097,-0.426l-0.1,-0.426l-0.1,-0.426l-0.102,-0.425l-0.103,-0.424l-0.104,-0.424l-0.106,-0.424l-0.106,-0.423l-0.109,-0.422l-0.109,-0.422l-0.111,-0.422l-0.111,-0.421l-0.114,-0.42l-0.114,-0.42l-0.116,-0.419l-0.117,-0.419l-0.118,-0.419l-0.119,-0.417l-0.121,-0.418l-0.122,-0.416l-0.123,-0.416l-0.125,-0.416l-0.126,-0.415l-0.127,-0.415l-0.128,-0.414l-0.129,-0.413l-0.131,-0.414l-0.132,-0.412l-0.133,-0.412l-0.134,-0.411l-0.136,-0.411l-0.137,-0.41l-0.138,-0.41l-0.139,-0.409l-0.141,-0.409l-0.141,-0.408l-0.143,-0.407l-0.144,-0.407l-0.146,-0.406l-0.146,-0.406l-0.148,-0.405l-0.149,-0.405l-0.15,-0.404l-0.151,-0.403l-0.153,-0.403l-0.154,-0.402l-0.155,-0.402l-0.156,-0.401l-0.157,-0.4l-0.159,-0.4l-0.159,-0.399l-0.161,-0.399l-0.162,-0.398l-0.164,-0.398l-0.164,-0.397l-0.165,-0.396l-0.167,-0.396l-0.168,-0.395l-0.169,-0.394l-0.17,-0.394l-0.172,-0.393l-0.173,-0.393l-0.173,-0.392l-0.175,-0.391l-0.176,-0.391l-0.178,-0.39l-0.178,-0.39l-0.179,-0.388l-0.181,-0.389l-0.182,-0.387l-0.183,-0.387l-0.184,-0.386l-0.185,-0.386l-0.186,-0.385l-0.188,-0.384l-0.189,-0.384l-0.189,-0.383l-0.191,-0.383l-0.192,-0.381l-0.193,-0.381l-0.195,-0.381l-0.195,-0.38l-0.197,-0.379l-0.197,-0.378l-0.199,-0.378l-0.2,-0.377l-0.2,-0.377l-0.203,-0.375l-0.203,-0.376l-0.204,-0.374l-0.205,-0.374l-0.207,-0.373l-0.207,-0.372l-0.209,-0.372l-0.21,-0.371l-0.211,-0.37l-0.211,-0.37l-0.213,-0.369l-0.214,-0.368l-0.216,-0.368l-0.216,-0.366l-0.217,-0.366l-0.218,-0.366l-0.22,-0.365l-0.22,-0.364l-0.222,-0.363l-0.223,-0.362l-0.223,-0.362l-0.225,-0.361l-0.226,-0.361l-0.227,-0.359l-0.228,-0.359l-0.229,-0.359l-0.23,-0.357l-0.231,-0.357l-0.232,-0.356l-0.233,-0.355l-0.234,-0.355l-0.236,-0.353l-0.236,-0.353l-0.237,-0.352l-0.238,-0.352l-0.24,-0.351l-0.24,-0.35l-0.242,-0.349l-0.242,-0.349l-0.244,-0.347l-0.244,-0.348l-0.246,-0.346l-0.246,-0.345l-0.248,-0.345l-0.248,-0.344l-0.25,-0.343l-0.251,-0.343l-0.251,-0.341l-0.253,-0.341l-0.253,-0.34l-0.255,-0.339l-0.255,-0.339l-0.257,-0.338l-0.257,-0.336l-0.259,-0.336l-0.26,-0.336l-0.26,-0.334l-0.262,-0.334l-0.262,-0.333l-0.264,-0.332l-0.264,-0.331l-0.265,-0.331l-0.267,-0.33l-0.267,-0.328l-0.268,-0.328l-0.27,-0.328l-0.27,-0.326l-0.271,-0.326l-0.272,-0.324l-0.273,-0.324l-0.275,-0.323l-0.274,-0.322l-0.276,-0.322l-0.277,-0.321l-0.278,-0.319l-0.279,-0.319l-0.28,-0.318l-0.28,-0.317l-0.282,-0.317l-0.283,-0.316l-0.283,-0.314l-0.284,-0.314l-0.286,-0.313l-0.286,-0.312l-0.287,-0.311l-0.288,-0.311l-0.289,-0.309l-0.29,-0.309l-0.291,-0.308l-0.292,-0.307l-0.293,-0.306l-0.293,-0.305l-0.295,-0.304l-0.295,-0.304l-0.296,-0.302l-0.298,-0.302l-0.298,-0.301l-0.299,-0.299l-0.3,-0.299l-0.3,-0.298l-0.302,-0.298l-0.303,-0.296l-0.303,-0.295l-0.304,-0.295l-0.305,-0.293l-0.306,-0.293l-0.307,-0.292l-0.308,-0.291l-0.309,-0.29l-0.309,-0.289l-0.311,-0.288l-0.311,-0.287l-0.312,-0.286l-0.313,-0.286l-0.314,-0.284l-0.315,-0.284l-0.315,-0.282l-0.316,-0.281l-0.318,-0.281l-0.318,-0.28l-0.319,-0.279l-0.319,-0.278l-0.321,-0.277l-0.321,-0.275l-0.323,-0.276l-0.323,-0.274l-0.324,-0.273l-0.325,-0.272l-0.325,-0.271l-0.326,-0.27l-0.328,-0.27l-0.328,-0.268l-0.329,-0.267l-0.329,-0.267l-0.331,-0.265l-0.331,-0.265l-0.332,-0.263l-0.333,-0.262l-0.334,-0.262l-0.334,-0.26l-0.336,-0.26l-0.336,-0.259l-0.337,-0.257l-0.337,-0.257l-0.339,-0.255l-0.339,-0.255l-0.34,-0.253l-0.341,-0.253l-0.342,-0.252l-0.342,-0.25l-0.343,-0.25l-0.344,-0.248l-0.345,-0.248l-0.345,-0.246l-0.346,-0.246l-0.347,-0.244l-0.348,-0.244l-0.349,-0.242l-0.349,-0.242l-0.35,-0.24l-0.351,-0.24l-0.351,-0.238l-0.353,-0.237l-0.353,-0.236l-0.353,-0.236l-0.355,-0.234l-0.355,-0.233l-0.356,-0.232l-0.357,-0.231l-0.358,-0.23l-0.358,-0.229l-0.359,-0.228l-0.359,-0.227l-0.361,-0.226l-0.361,-0.225l-0.362,-0.223l-0.362,-0.223l-0.363,-0.222l-0.364,-0.22l-0.365,-0.22l-0.366,-0.218l-0.366,-0.217l-0.366,-0.216l-0.368,-0.216l-0.368,-0.214l-0.369,-0.213l-0.37,-0.212l-0.37,-0.21l-0.371,-0.21l-0.372,-0.209l-0.372,-0.207l-0.373,-0.207l-0.374,-0.205l-0.374,-0.204l-0.375,-0.203l-0.376,-0.203l-0.377,-0.2l-0.377,-0.2l-0.378,-0.199l-0.378,-0.198l-0.379,-0.196l-0.38,-0.195l-0.38,-0.195l-0.382,-0.193l-0.381,-0.192l-0.383,-0.191l-0.383,-0.189l-0.384,-0.189l-0.384,-0.188l-0.385,-0.186l-0.386,-0.185l-0.386,-0.184l-0.387,-0.183l-0.387,-0.182l-0.389,-0.181l-0.389,-0.179l-0.389,-0.178l-0.39,-0.178l-0.391,-0.176l-0.391,-0.175l-0.392,-0.173l-0.393,-0.173l-0.393,-0.171l-0.394,-0.171l-0.394,-0.169l-0.395,-0.168l-0.396,-0.166l-0.396,-0.166l-0.397,-0.164l-0.398,-0.164l-0.398,-0.162l-0.399,-0.161l-0.399,-0.159l-0.4,-0.159l-0.4,-0.157l-0.401,-0.156l-0.402,-0.155l-0.402,-0.154l-0.403,-0.153l-0.403,-0.151l-0.404,-0.15l-0.405,-0.149l-0.405,-0.148l-0.406,-0.146l-0.406,-0.146l-0.407,-0.144l-0.407,-0.143l-0.408,-0.141l-0.409,-0.141l-0.409,-0.139l-0.41,-0.138l-0.41,-0.137l-0.411,-0.136l-0.411,-0.134l-0.412,-0.133l-0.412,-0.132l-0.413,-0.131l-0.414,-0.129l-0.414,-0.128l-0.415,-0.127l-0.415,-0.126l-0.415,-0.125l-0.417,-0.123l-0.416,-0.122l-0.418,-0.121l-0.417,-0.119l-0.419,-0.118l-0.419,-0.117l-0.419,-0.116l-0.42,-0.114l-0.42,-0.114l-0.421,-0.111l-0.422,-0.111l-0.422,-0.11l-0.422,-0.108l-0.423,-0.106l-0.424,-0.106l-0.424,-0.104l-0.424,-0.103l-0.425,-0.102l-0.426,-0.1l-0.426,-0.1l-0.426,-0.097l-0.427,-0.097l-0.428,-0.095l-0.428,-0.094l-0.428,-0.093l-0.429,-0.091l-0.43,-0.09l-0.43,-0.089l-0.43,-0.088l-0.431,-0.086l-0.431,-0.085l-0.432,-0.083l-0.432,-0.082l-0.433,-0.081l-0.433,-0.08l-0.434,-0.078l-0.434,-0.077l-0.435,-0.076l-0.435,-0.074l-0.435,-0.073l-0.436,-0.071l-0.436,-0.071l-0.437,-0.069l-0.438,-0.067l-0.438,-0.067l-0.438,-0.064l-0.438,-0.064l-0.44,-0.062l-0.439,-0.061l-0.44,-0.06l-0.44,-0.058l-0.441,-0.057l-0.442,-0.055l-0.441,-0.054l-0.442,-0.053l-0.443,-0.051l-0.443,-0.05l-0.443,-0.049l-0.444,-0.047l-0.445,-0.046l-0.444,-0.045l-0.445,-0.043l-0.446,-0.041l-0.446,-0.041l-0.446,-0.039l-0.447,-0.037l-0.447,-0.037l-0.448,-0.034l-0.447,-0.034l-0.449,-0.032l-0.449,-0.03l-0.449,-0.03l-0.449,-0.028l-0.45,-0.026l-0.45,-0.025l-0.451,-0.024l-0.451,-0.022l-0.452,-0.02l-0.452,-0.02l-0.452,-0.018l-0.453,-0.016l-0.453,-0.015l-0.453,-0.014l-0.454,-0.012l-0.454,-0.011l-0.454,-0.009l-0.455,-0.008l-0.455,-0.007l-0.456,-0.005l-0.456,-0.004l-0.456,-0.002l-0.457,0l-0.457,0Z" style="fill:#545454;"/></svg>