<?xml version="1.0" encoding="UTF-8" standalone="no"?><!DOCTYPE svg PUBLIC "-//W3C//DTD SVG 1.1//EN" "http://www.w3.org/Graphics/SVG/1.1/DTD/svg11.dtd"><svg width="100%" height="100%" viewBox="0 0 480 480" version="1.1" xmlns="http://www.w3.org/2000/svg" xmlns:xlink="http://www.w3.org/1999/xlink" xml:space="preserve" xmlns:serif="http://www.serif.com/" style="fill-rule:evenodd;clip-rule:evenodd;stroke-linecap:round;stroke-linejoin:round;stroke-miterlimit:1.5;"><g><path d="M88.519,178.234l110.449,-71.254l191.265,45.477l-0.572,175.37l-144.602,-23.678l-127.041,70.37l-29.499,-196.285Z" style="fill:none;stroke:#545454;stroke-width:10px;"/><circle cx="200.969" cy="105.481" r="16.563" style="fill:#545454;"/><circle cx="90.52" cy="176.735" r="16.563" style="fill:#545454;"/><circle cx="184.406" cy="214.399" r="16.563" style="fill:#545454;"/><circle cx="302.038" cy="208.148" r="16.563" style="fill:#545454;"/><circle cx="245.059" cy="304.149" r="16.563" style="fill:#545454;"/><circle cx="118.018" cy="374.519" r="16.563" style="fill:#545454;"/><circle cx="389.48" cy="326.673" r="16.563" style="fill:#545454;"/><circle cx="389.48" cy="152.834" r="16.563" style="fill:#545454;"/><path d="M184.406,214.399l-93.886,-37.664l93.886,37.664Z" style="fill:none;stroke:#545454;stroke-width:10px;"/><path d="M200.969,105.481l-16.563,108.918" style="fill:none;stroke:#545454;stroke-width:10px;"/><path d="M302.038,208.148l-101.069,-102.667l101.069,102.667Z" style="fill:none;stroke:#545454;stroke-width:10px;"/><path d="M390.233,152.457l-88.195,55.691l88.195,-55.691Z" style="fill:none;stroke:#545454;stroke-width:10px;"/><path d="M184.406,214.399l117.632,-6.251l-117.632,6.251Z" style="fill:none;stroke:#545454;stroke-width:10px;"/><path d="M245.028,303.459l-60.622,-89.06l60.622,89.06Z" style="fill:none;stroke:#545454;stroke-width:10px;"/><path d="M302.038,208.148l87.623,119.679" style="fill:none;stroke:#545454;stroke-width:10px;"/><path d="M118.018,374.519l66.388,-160.12l-66.388,160.12Z" style="fill:none;stroke:#545454;stroke-width:10px;"/><path d="M302.038,208.148l-57.01,95.311l57.01,-95.311Z" style="fill:none;stroke:#545454;stroke-width:10px;"/><path d="M118.018,374.519l271.643,-46.692l-271.643,46.692Z" style="fill:none;stroke:#545454;stroke-width:10px;"/></g></svg>